<?xml version="1.0" encoding="utf-8"?>
<!-- Generator: Adobe Illustrator 22.1.0, SVG Export Plug-In . SVG Version: 6.00 Build 0)  -->
<svg version="1.1" id="Layer_1" xmlns="http://www.w3.org/2000/svg" xmlns:xlink="http://www.w3.org/1999/xlink" x="0px" y="0px"
	 viewBox="0 0 700 500" style="enable-background:new 0 0 700 500;" xml:space="preserve">
<style type="text/css">
	.st0{fill:#2E6977;}
	.st1{fill:#388293;}
	.st2{clip-path:url(#SVGID_2_);}
	.st3{fill:#56448C;}
	.st4{fill:#432D4F;}
	.st5{fill:#6E6FB4;}
	.st6{fill:#EBA688;}
	.st7{fill:#F0BF9C;}
	.st8{fill:#A59B95;}
	.st9{fill:#D5D0BF;}
	.st10{fill:#E4E4E0;}
	.st11{fill:#FFFFFF;}
	.st12{fill:#938985;}
	.st13{fill:#6B374A;}
	.st14{fill:#C8D3D8;}
	.st15{fill:#84D0CD;}
	.st16{fill:#8F5B62;}
	.st17{fill:#E78883;}
	.st18{fill:#862E71;}
	.st19{fill:#BB3971;}
	.st20{fill:#E04269;}
	.st21{fill:#AEC052;}
	.st22{fill:#7CA566;}
	.st23{opacity:0.3;fill:#4D8D85;enable-background:new    ;}
	.st24{opacity:0.3;}
	.st25{fill:#4D8D85;}
</style>
<g id="OBJECT">
	<g>
		<g>
			<g>
				<path class="st0" d="M366.9,325.2c20.6-6.1,41.5,7.5,57.8,21.5c16.3,14,33.8,30.1,55.3,30.1c21.7,0.1,39.5-16.2,55.9-30.3
					s37.8-27.7,58.5-21.3c7.8,2.4,14.4,7.5,22,10c15.8,5.5,33.6-0.2,46.8-10.4c3.3-2.5,6.3-5.3,9.1-8.2c-5.9,26.7-13.2,52.5-27.4,77
					c-11.6,20.2-26.3,38.5-43.6,53.8c-45.6,40.4-109,59.1-168.1,47.7c-59.1-11.4-112.3-53.4-136.8-110c-1-2.3-1.9-4.6-2.8-6.9
					c14.1-6.4,27.2-15.1,38.4-25.8C342.6,342,352.5,329.4,366.9,325.2z"/>
				<path class="st1" d="M235.9,197.4c-4.7-28.8,3.8-62.9,29-76c23.7-12.3,54-2.7,77.3-15.6c23.7-13.1,31.1-43.7,47-66
					c20.3-28.4,57-43.2,90.5-36.5c33.6,6.8,62.3,34.7,70.8,68.9c3.9,15.6,3.8,31.9,6,47.8c2.2,15.9,7,32.4,18.5,43.2
					c19.6,18.7,50.8,14.8,74.7,27.1c34.1,17.4,37,58,29.9,92c-2.5,11.6-4.7,23.2-7.3,34.5c-2.9,3-5.9,5.7-9.1,8.2
					c-13.2,10.1-31.1,15.8-46.8,10.4c-7.7-2.7-14.3-7.7-22-10c-20.7-6.5-42,7.2-58.5,21.3c-16.5,14.1-34.2,30.4-55.9,30.3
					c-21.5-0.1-39-16.2-55.3-30.1c-16.3-14-37.2-27.5-57.8-21.5c-14.3,4.2-24.2,16.8-35,27.2c-11.1,10.7-24.2,19.5-38.4,25.8
					c-12.4-31.8-17.2-66.5-28.6-98.8C255.2,252.1,240.6,226.1,235.9,197.4z"/>
			</g>
			<path class="st1" d="M576.7,94.2c1.2,13.1,7.6,25.6,17.5,34.2c11.4,9.8,26.3,14.1,40.8,18.2c7.9,2.2,15.7,4.4,23.6,6.6
				c4.4,1.2,8.9,2.5,13.4,2.1c7.9-0.6,14.8-6,19.4-12.5c9.4-13.7,9.2-32.6,2.5-47.8c-6.8-15.2-19.3-27.2-33.2-36.5
				C650,51.2,638,45.4,625,44c-12.4-1.4-27.8,1.9-36.6,11.7C579.8,65.8,575.6,81.2,576.7,94.2z"/>
			<g>
				<g>
					<defs>
						<path id="SVGID_1_" d="M224.5,248.3l14.1-38.6c-1.1-4.1-2-8.2-2.7-12.4c-4.7-28.8,3.8-62.9,29-76c10.6-5.6,22.7-6.7,34.9-7.4
							l6.6-18.1l36.3,9.6c23.4-13.2,30.9-43.6,46.7-65.9c20.3-28.4,57-43.2,90.5-36.5c33.6,6.8,62.3,34.7,70.8,68.9
							c3.9,15.6,3.8,31.9,6,47.8c0.6,4.1,1.3,8.2,2.3,12.2l22.9-84.5l60.4-38.9l9.6,60.9l-50.6,107c16,4.5,33.7,5.9,48.6,13.5
							c34.1,17.4,37,58,29.9,92c-8.2,39.2-14.4,76.5-34.6,111.5c-11.6,20.2-26.3,38.5-43.6,53.8c-45.6,40.4-109,59.1-168.1,47.7
							c-50.1-9.6-95.9-41.2-123.7-85.2l-30.1-16.2C227.5,365.7,204.1,303.8,224.5,248.3z"/>
					</defs>
					<clipPath id="SVGID_2_">
						<use xlink:href="#SVGID_1_"  style="overflow:visible;"/>
					</clipPath>
					<g class="st2">
						<g>
							<g>
								<g>
									<path class="st3" d="M565.3,413.1l3.3,5.4c5.1,8.3,7.8,18,7.8,27.7V490l-91.1,11l-77.5-6.6l19.3-64.9L565.3,413.1z"/>
									<path class="st4" d="M547.9,448.1l-27.6,5.2c-20.8,3.9-42,3.5-62.6-1.4l-18.5-4.4c-6.2-1.4-11.3-5.3-14.5-10.6l2.2-7.5
										l138.5-16.5l3.3,5.4c1.8,2.9,3.2,5.9,4.4,9l-0.4,0.9C568.1,438.6,558.9,446.1,547.9,448.1z"/>
								</g>
								<g>
									<path class="st4" d="M483.1,496c3.4-3.8,7.8-7.8,12.8-11.5c5.1-3.8,10.7-7.3,16.8-10.1c6.1-2.9,12.3-5.3,18.4-6.9
										c6.1-1.6,11.9-2.6,17-2.9c-9.4,3.7-21.6,8.3-33.2,14C503.1,484.4,491.9,491,483.1,496z"/>
								</g>
								<g>
									<path class="st4" d="M433,461.8c3.9,0.4,8.2,1.5,12.8,3.2c4.6,1.7,9.1,4,13.4,6.9c4.3,2.9,8.2,6.2,11.5,9.7
										c3.3,3.5,6,7.2,7.9,10.5c-5.8-5.3-13.2-11.7-21.5-17.2C449,469.3,440.2,464.9,433,461.8z"/>
								</g>
							</g>
							<g>
								<path class="st5" d="M479.9,221.1l-48.7,7.2l-62.4,23l4.1,54.4l25.6-6.3l22.1,65.4c4,11.7,3.5,24.4-1.4,35.8l0,0
									c-4,9.4-3.3,20.2,2.1,28.9l2.6,4.2c2.1,3.5,5.7,5.9,9.6,6.7c23.8,4.4,69.7,8.8,113.4-2.4c10.8-2.8,20.1-9.8,25.4-19.6l0,0
									c5-8.9,6.3-19.4,3.8-29.3c-4.9-19.7-13.9-53.4-22.7-72.7l37.3-19.9L564.2,255c-8.7-13.7-23-23.2-39-25.9L479.9,221.1"/>
								<path class="st3" d="M372.8,305.5l-4.1-54.4l62.4-23l48.5-7.2c-10.4,37.8-26.2,74-46.9,107.3c-5,8-10.3,16-16.6,23.2
									l-17.7-52.4L372.8,305.5z"/>
								<path class="st3" d="M524.9,342.6c1.9,2.3,3,5.2,3,8.2c0,7.3-5.9,13.1-13.1,13.1c-7.3,0-13.1-5.9-13.1-13.1
									c0-6.9,5.3-12.5,11.9-13.1l9.9-36.9l42.1,8.8l-12,6.4c8.6,19.4,17.7,53,22.7,72.7l0,0l-43-60.3L524.9,342.6z"/>
								<g>
									<path class="st3" d="M446.8,263.4c4.4,0.8,9.4,0.9,14.5-0.1c5.1-1,10.2-3.1,14.5-6.4c4.3-3.3,7.7-7.7,9.9-12.3
										c2.3-4.7,3.5-9.5,3.9-14c1,4.4,0.9,9.7-0.9,15.2c-1.8,5.4-5.4,10.6-10.3,14.4s-10.9,5.8-16.6,6.2
										C455.9,266.9,450.6,265.6,446.8,263.4z"/>
								</g>
								<g>
									<path class="st3" d="M410.9,317.1c6.3-0.4,13.4-1.1,20.9-2.2c7.5-1.1,15.2-2.8,22.9-5s15.1-5,22-8c7-3,13.2-6.3,18.8-9.2
										c-4.4,4.6-10,9.2-16.7,13.2c-6.7,4.1-14.4,7.5-22.4,9.7c-8,2.3-16.3,3.6-24.1,3.7C424.3,319.6,417,318.7,410.9,317.1z"/>
								</g>
								<g>
									<path class="st3" d="M426,345.7c7.1,3.8,15.3,7.9,24.3,11.7c9,3.8,18.8,7.4,28.8,10.1c10,2.8,20.2,4.9,29.9,6.3
										c9.7,1.4,18.9,2.1,26.9,2.5c-7.9,0.9-17.3,1.1-27.2,0.3c-9.9-0.8-20.4-2.6-30.6-5.5c-10.2-2.9-20.1-6.8-29-11.1
										C440.2,355.5,432.4,350.6,426,345.7z"/>
								</g>
								<g>
									<path class="st3" d="M453.1,354.1c8.1,0.4,18.5,0.9,28.8,0.5c10.3-0.3,20.7-1.4,28.7-2.3c-7.4,3.3-18,5.9-28.6,6.1
										C471.4,358.8,460.7,357,453.1,354.1z"/>
								</g>
							</g>
						</g>
						<g>
							<g>
								<polygon class="st6" points="553.5,316.2 586.4,298.6 609.8,337.7 								"/>
								<polygon class="st4" points="586.4,298.6 553.5,316.2 579.8,326.2 588.9,302.8 								"/>
							</g>
							<g>
								<g>
									<path class="st7" d="M546.3,293.9l2.1-12.8l0,0l58.1,53c10.4,9.5,10.4,25.8,0.1,35.4l0,0c-10.7,9.9-27.8,8-36.1-4
										l-33.7-48.8l0.6-0.9C542.1,309.3,545.1,301.8,546.3,293.9z"/>
									<path class="st6" d="M546.7,279.5l1.8,1.6l0,0l-2.1,12.8c-1.3,7.9-4.3,15.4-8.8,22l-0.6,0.9l-9.1-13.2L546.7,279.5z"/>
								</g>
								<g>
									<g>
										<path class="st8" d="M523.4,300.9l-1.5,2.7c-3-4.1-9-7.2-12.1-7.9l0,0c3.6,0.3,5.7,0.5,8.9,2
											C520.5,298.4,522.1,299.6,523.4,300.9z"/>
										<path class="st9" d="M525.7,296.9l-2.2,4c-1.3-1.4-2.9-2.5-4.6-3.3c-3.3-1.5-5.4-1.7-8.9-2l2.8-7.6
											C521.2,290.6,524.8,295.6,525.7,296.9z"/>
										<path class="st9" d="M521.9,303.6l-4.5,7.9c-1.3-1.4-2.9-2.5-4.6-3.2c-2-0.8-5.1-1.7-7.2-1.8l4.1-10.9
											C512.8,296.4,518.9,299.6,521.9,303.6z"/>
										<path class="st8" d="M517.5,311.5l-1.5,2.6c-2.4-3.3-6.6-6.3-10.2-7.6l0,0c2.1,0.2,5.2,1.1,7.2,1.8
											C514.6,309.1,516.2,310.1,517.5,311.5z"/>
										<path class="st8" d="M525.7,296.9c-0.8-1.3-4.4-6.4-13-8.8c6.6,0.1,12.6,3.1,16.8,8l0.4,0.5l-4.4,7.4
											c-0.5-1.2-1.2-2.2-2.1-3.2L525.7,296.9z"/>
										<path class="st8" d="M523.4,300.9c0.9,0.9,1.6,2,2.1,3.2l-1.9,3.2c-0.2-1.3-0.8-2.5-1.7-3.7L523.4,300.9z"/>
										<path class="st8" d="M517.6,317.4l-5.6,9.4l-2.2-1.7l6.2-11C516.8,315.2,517.3,316.3,517.6,317.4z"/>
										<path class="st9" d="M505.8,306.5c3.7,1.3,7.9,4.3,10.2,7.6l-6.2,11l-8.5-6.5L505.8,306.5z"/>
										<path class="st8" d="M517.5,311.5c0.8,0.9,1.5,1.8,1.9,2.9l-1.8,3c-0.3-1.1-0.9-2.2-1.6-3.3L517.5,311.5z"/>
										<path class="st8" d="M521.9,303.6c0.9,1.2,1.5,2.4,1.7,3.7l-4.2,7.2c-0.5-1.1-1.1-2-1.9-2.9L521.9,303.6z"/>
									</g>
									<g>
										<g>
											<path class="st9" d="M499.7,337.7c7.7,0,13.9-6.3,13.9-13.9c0-0.1,0-0.1,0-0.2c1.3,2.1,2,4.6,2,7.2
												c0,7.7-6.3,13.9-13.9,13.9c-7.7,0-13.8-6.2-13.9-13.7C490.2,335.1,494.7,337.7,499.7,337.7z"/>
											<path class="st10" d="M499.7,337.7c-5.1,0-9.4-2.7-11.9-6.8c0-0.1,0-0.1,0-0.2c0-7.7,6.3-13.9,13.9-13.9
												c5.1,0,9.4,2.7,11.9,6.8c0,0.1,0,0.1,0,0.2C513.5,331.6,507.4,337.7,499.7,337.7z"/>
										</g>
										<path class="st11" d="M493.7,324.5c0.3,2.1,3.8,3.3,7.7,2.6c3.9-0.6,6.8-2.9,6.4-5c-0.3-2.1-3.8-3.3-7.7-2.6
											C496.2,320.3,493.3,322.4,493.7,324.5z"/>
									</g>
									<g>
										<polygon class="st12" points="633.1,27.4 540.7,241.2 529.3,236.9 600.2,61.7 										"/>
										<polygon class="st8" points="633.1,27.4 633.3,27.1 637.1,72.3 552.5,245.5 540.7,241.2 										"/>
										<polygon class="st11" points="633.3,27.1 642,73.1 552.5,245.5 637.1,72.3 										"/>
										<polygon class="st9" points="600.2,61.7 529.3,236.9 597.4,60.2 633.1,27.3 633.1,27.4 										"/>
									</g>
									<g>
										<path class="st8" d="M522.5,208l4.8,7.5c-0.1,8.7,4.4,17.8,11.6,23.6c7.1,5.6,16.9,8.2,26.2,7.1c3.1-0.4,6.2-1.2,9.1-2.3
											l-2.4-3.6l13-11l9.8,5.8l4.8,7.5c-8.9,9.3-20.7,15.3-32.9,16.8c-2.1,0.3-4.2,0.4-6.3,0.4c-10.9,0-21.6-3.6-29.9-10.1
											c-10.5-8.3-21.5-28.4-21.4-41.4L522.5,208z"/>
										<g>
											<path class="st9" d="M555.8,252c2.1,0,4.2-0.1,6.3-0.4c12.2-1.5,23.9-7.6,32.9-16.8l-9.5-9.1c-6.9,7.2-15.8,11.7-25,12.9
												c-9.4,1.2-19.3-1.5-26.2-7.1c-7.3-5.8-11.6-14.8-11.6-23.6l-13.2-0.1c-0.1,12.9,6.1,25.6,16.6,34
												C534.2,248.5,544.8,252,555.8,252z"/>
										</g>
									</g>
									<g>
										<path class="st6" d="M517.1,246.4L517.1,246.4c-3.3-1.9-7.4-0.5-8.8,3l-4.5,10.8c-1.2,2.9,0.1,6.3,3,7.6l0,0
											c2.9,1.3,6.3,0.1,7.7-2.7l5.2-10.5C521,251.6,519.9,248,517.1,246.4z"/>
										<g>
											<path class="st7" d="M552.5,253.2l-11.5-9.2c-3.7-2.9-8.7-3.3-12.7-0.9l-6.8,4.1c-2.1,1.3-3.7,3.2-4.6,5.5l-12,31.5
												c-0.8,2.2-0.5,4.6,1,6.4l3.9,5.2l2.8-7.6l0,0c6.6,0.1,12.6,3.1,16.8,8l0.4,0.5l-4.4,7.4l7.9-1.8c4.8-1,8.7-4.4,10.4-8.9
												l11.4-30.3C556.6,259.5,555.5,255.6,552.5,253.2z"/>
											<path class="st6" d="M506.4,280.4l13.8-3.9c2-0.6,4.2,0,5.7,1.5l7.5,7.4l-5.5-8.3c-2.3-3.5-6.9-4.7-10.5-2.7L506.4,280.4
												z"/>
											<path class="st6" d="M509.3,272.8l13.9-6.9c2.9-1.4,6.5-0.5,8.3,2.2l5.1,7.4l-3.6-8.1c-2-4.6-7.7-6.1-11.7-3.2
												L509.3,272.8z"/>
											<path class="st6" d="M514,260.1l10.6-6.8c2.9-1.9,6.8-1.3,8.9,1.4l5.2,6.3l-4.4-8c-1.9-3.5-6.5-4.4-9.5-1.9L514,260.1z"
												/>
										</g>
									</g>
								</g>
							</g>
						</g>
						<g>
							<g>
								<path class="st4" d="M459.4,227.8c-5.2,4-11.6,6.3-18.2,6.2c-3.1,0-6.2-0.6-9-1.6l-4.3-15.3l43.4-9.5l0.8,1.3
									C469.3,216.1,465.5,223,459.4,227.8z"/>
								<path class="st7" d="M441.3,233.9c6.5,0.1,13-2.1,18.2-6.2c6.1-4.8,9.9-11.7,12.8-19L480,221c3.8,6.1,4.3,13.6,1.2,20.1l0,0
									c-4.7,10-15.1,16.2-26,14.9c-10.3-1.3-18.6-8.5-21.3-18.3l-1.5-5.5C435.1,233.3,438.2,233.9,441.3,233.9z"/>
							</g>
							<g>
								<path class="st13" d="M486.9,196.8l19.8-41.5c4.1-8.5,0-18.7-8.8-22.2c-18-7.1-34-23.5-47.6-37c-1.6-1.6-3.2-3.3-5.2-4.3
									s-4.5-1.4-6.5-0.3c-2.2,1.3-3.2,4.2-2.9,6.7c0.3,2.6,1.5,4.9,2.8,7.2c-2.6-1-6.1-2.7-8.1-4.5c-2.7-2.3-5.6-4.7-9.2-5.2
									c-1.5-0.2-3.1,0-4.4,0.7c-4.3,2.3-4,7.8-2.7,12c2.7,8.2,8.2,15.6,15.5,20.4l41.4,11l-3.3,21.2l10.3,10.7l0.4,25L486.9,196.8
									L486.9,196.8z"/>
								<path class="st7" d="M405,176.7l6.9-27.6c2.4-10.5,8.8-19.1,17.4-24.3c16.2,0.8,32.2,5.2,46.5,12.7
									c-1.8,5.7-3.5,11.9-2.6,17.8c0.8,5.5,4.2,10.5,8.8,13.5l0.6,21l-1.2,4.6c-4.9,21.1-25.9,34.3-47,29.4l0,0
									C413.3,218.9,400.2,197.8,405,176.7z"/>
								<g>
									<g>
										<path class="st14" d="M455.6,219.8c10.6-1.2,20.6-6,28.1-13.4l-2.3-2.3c-7.1,7.1-16.3,11.4-26.2,12.5L455.6,219.8z"/>
									</g>
									<g>
										<g>
											<path class="st14" d="M467.3,196c7.4-3.4,15.1-3.9,24.5-4.3l-0.1-3.3c-7.8,0.3-17.3,0.7-25.8,4.6L467.3,196z"/>
										</g>
										<g>
											<path class="st11" d="M459,212.5c2.2-6.1,4.1-12.5,5.6-18.5c-6.9-2.3-12.3-7.5-16.1-11c-4.4-4.2-9.7-9.2-15.7-9.9
												c-0.5-0.1-1.1-0.1-1.6-0.1c-3,0-6.2,0.9-9.5,1.8l-1.3,0.4c-3.1,0.8-6.7,1.7-10.3,1.7c-0.5,0-1,0-1.6-0.1
												c-1.4-0.1-2.9-0.5-4.3-1.1l0.9-4c4.6,1.5,9.5,0.5,14.1-0.8c4.6-1.2,9.3-2.7,14.1-2.2c7.3,0.8,13,6.2,18.3,11.1
												c5.3,5,11.1,10.2,18.4,10.9c-1.6,7.6-4,15.9-6.7,23.4c-3.2,8.7-12.1,13.8-21.1,12.3C451.8,223.8,457.2,217.4,459,212.5z"
												/>
											<path class="st15" d="M404,175.6c1.4,0.6,2.9,1,4.3,1.1c0.5,0,1,0.1,1.6,0.1c3.7,0,7.3-0.8,10.3-1.7l1.3-0.4
												c3.4-0.9,6.5-1.8,9.5-1.8c0.6,0,1.1,0,1.6,0.1c6,0.7,11.4,5.9,15.7,9.9c3.9,3.7,9.3,8.8,16.1,11
												c-1.4,6-3.4,12.4-5.6,18.5c-1.8,5-7.2,11.2-17,13.8c-0.8-0.1-1.7-0.3-2.5-0.6l-13.5-4.2c-17-5.4-27.1-22.9-23.3-40.2
												L404,175.6z"/>
										</g>
									</g>
								</g>
								<g>
									<path class="st13" d="M460.3,150.8c4.6,1.7,7.7,5.5,8.9,9.9l-22.2-8.3C450.9,149.8,455.8,149.1,460.3,150.8z"/>
								</g>
								<g>
									<path class="st13" d="M420.4,143.8c-3.8,0.1-7.1,2.7-9,6.5l18.6-0.6C427.6,146,424.2,143.7,420.4,143.8z"/>
								</g>
								<path class="st4" d="M448.3,166.9c0,1.9,1.5,3.4,3.4,3.4c1.9,0,3.4-1.5,3.4-3.4s-1.5-3.4-3.4-3.4
									C449.7,163.5,448.3,165,448.3,166.9z"/>
								<path class="st4" d="M415.9,160.1c-0.1,1.9,1.1,3.4,2.6,3.5c1.5,0.1,2.8-1.4,2.9-3.2c0.1-1.9-1.1-3.4-2.6-3.5
									C417.1,156.8,415.9,158.3,415.9,160.1z"/>
								<g>
									<circle class="st7" cx="491.2" cy="199.9" r="13.2"/>
									
										<ellipse transform="matrix(0.1602 -0.9871 0.9871 0.1602 215.1724 652.7325)" class="st6" cx="491.2" cy="199.9" rx="7.6" ry="7.6"/>
								</g>
								<path class="st16" d="M504.5,156.8c3.4-9.3-1.6-19.5-10.9-22.8c-5.9-2.1-11.4-5.2-16.5-8.9c-10-7.5-18.2-17.1-26.1-26.7
									c-2.1-2.5-4.2-5-6.9-6.8c-0.3-0.2-0.6-0.3-0.8-0.5c0.6,0.2,1.2,0.4,1.8,0.7c2,1,3.6,2.7,5.2,4.3
									c13.6,13.6,29.6,29.9,47.6,37c8.8,3.5,12.9,13.6,8.8,22.2l-6.8,14.1l0,0L504.5,156.8z"/>
							</g>
						</g>
						<g>
							<g>
								<path class="st17" d="M408.1,231.7l10.3-0.9c4.1-0.3,7.8,2.4,8.6,6.4l5.2,22.4l-3.1,0.3c-6.7,0.7-12.7-3.8-13.9-10.3l-1.1-6
									L408.1,231.7z"/>
								<g>
									<path class="st6" d="M417.3,251.4l3.4-6.8c1.3-2.5,0.6-5.6-1.6-7.4l-9.4-7.9c-3.6-3-8.3-4.2-12.9-3.2l-20.3,4.4L364.3,269
										l19.8,17.8c1.9,1.7,4.4,2.6,6.9,2.6l6.9-0.2c3.1-0.1,5.8-1.9,7-4.8l1.8-4.3l1.4-0.3c2.9-0.6,5-3,5.4-5.9l0.9-7.1l0,0
										c2.5-0.2,4.7-1.8,5.7-4.1l1.2-3.1c1.1-2.8,0.1-6.1-2.4-7.8L417.3,251.4z"/>
									<path class="st17" d="M417.3,251.4l-18.6-14.7l6.1,2.8c4.8,2.2,8.7,5.8,11.5,10.2L417.3,251.4z"/>
									<path class="st17" d="M414.2,267.1l-26-6l5.9,3c5.2,2.6,10.9,3.8,16.8,3.3L414.2,267.1z"/>
									<path class="st17" d="M406.5,280.3h-18.4l3.1,0.9c5,1.4,10.2,1.1,15-0.7L406.5,280.3z"/>
								</g>
							</g>
							<g>
								<g>
									<path class="st18" d="M385.1,289.6c-15.7,43-47,76.2-81.3,86.1l-26,7.5l-17.1-6.2l4.5-12.4l-2.6-3.9
										c-19.9-29.5-22.6-75.1-7-118.2l37.3-102.3l129.5,47.1L385.1,289.6z"/>
									<path class="st19" d="M330.7,114.1l22.7,8.2l17.1,6.2l39.7,14.4c-7.1,19.5-1.7,39.4,12.1,44.3l-129.4-47.1
										C306.7,145.3,323.6,133.5,330.7,114.1z"/>
								</g>
								<path class="st20" d="M313.7,107.9l79.4,28.9c-7.1,19.5-1.7,39.4,12.1,44.3L368,283.4c-15.7,43-47,76.2-81.3,86.1l-26,7.5
									l-15.1-22.5c-19.9-29.5-22.6-75.1-7-118.2L275.8,134C289.7,139.1,306.6,127.4,313.7,107.9z"/>
								<g>
									<path class="st19" d="M257.5,243.2l33.8-92.9c13.6-0.7,27.1-9.6,35.8-24.2l51.1,18.6c-2.7,16.8,1.9,32.3,11.8,41.5
										l-33.8,92.9c-14.2,39-42.8,69.7-72.9,78.3l-12.8,3.7l-7.5-11C245.4,324.1,243.3,282.2,257.5,243.2z"/>
									<g>
										<path class="st18" d="M320.1,123.5l7.1,2.6c-8.7,14.5-22.2,23.6-35.8,24.2l-7.1-2.6C297.9,147,311.3,138,320.1,123.5z"/>
										<path class="st18" d="M257.5,243.2c-14.2,39-12,80.9,5.6,106.9l7.5,11l-4.5,1.3l-10-14.9c-17.5-26-19.7-68-5.6-106.9
											l33.8-92.9l7.1,2.6L257.5,243.2z"/>
									</g>
								</g>
								<g>
									<polygon class="st14" points="285.2,213.5 305.4,220.9 315.2,193.9 338.7,202.4 328.9,229.4 349.1,236.8 340.5,260.3 
										320.4,253 310.5,280 287,271.5 296.8,244.3 276.6,237.1 									"/>
									<polygon class="st11" points="278.6,211.1 298.8,218.5 308.7,191.5 332.2,200 322.3,227 342.5,234.4 334,257.9 
										313.8,250.6 304,277.6 280.4,269.1 290.2,241.9 270.1,234.7 									"/>
								</g>
							</g>
						</g>
					</g>
				</g>
			</g>
		</g>
		<g>
			<path class="st21" d="M102,362.8c1-3.1,2.6-6.1,5-7.8c2.4-1.7,5.8-1.6,7.4,0.9c1.2,2,1.1,4.8,0.2,7.2c-0.1,0.4-0.3,0.8-0.6,1.1
				c-1.3,2.2,0.1,5,2.7,5.4c5,0.7,10,0.1,14.4-2.2c0.8-2.8,1.9-5.5,3.1-8c-1.2-2.9-3.4-5.3-6.1-7.1c-1.4-0.9-3.1-0.2-3.6,1.4
				c-0.1,0.2-0.1,0.4-0.2,0.6c-0.5,1.3-1.1,2.7-2.2,3.5c-1.6,1.1-3.6,0.2-4.4-1.4c-0.8-1.6-0.5-3.7,0-5.7c0.8-2.9,2.2-5.7,4.1-8
				c1.3-1.6,2.9-3.1,4.7-3.6c1.8-0.5,3.8,0.3,4.2,2.2c0.3,1.4-0.4,3.1-1.4,4.4c-0.2,0.2-0.4,0.4-0.6,0.6c-1.2,1.1-1,3.1,0.4,3.8
				c2.9,1.5,6.1,2.3,9.2,1.9c2.1-3.2,4.6-6.3,7.3-8.9c-0.3-4.2-2-8-4.6-11.4c-1.4-1.8-4-1.8-5.3,0.1c-0.2,0.2-0.3,0.5-0.5,0.7
				c-1.2,1.5-2.8,3.1-4.6,3.5c-2.7,0.6-4.9-1.5-5.1-4c-0.2-2.5,1.1-5.2,2.7-7.5c2.4-3.5,5.6-6.5,9.2-8.6c2.5-1.5,5.3-2.7,7.9-2.5
				c2.6,0.2,4.9,2.2,4.5,4.9c-0.3,2-2,3.9-4,5.1c-0.3,0.2-0.7,0.3-1,0.5c-2.1,0.8-2.8,3.5-1.3,5.2c3,3.3,6.7,5.7,10.7,6.8
				c3.1-2.1,6.4-3.9,9.7-5.4c0.8-2.5,0.7-5.3-0.1-7.9c-0.4-1.3-1.9-1.8-3.1-1.1c-0.1,0.1-0.3,0.2-0.4,0.3c-1,0.6-2.2,1.2-3.3,1
				c-1.6-0.2-2.5-1.8-2.1-3.3c0.4-1.5,1.7-2.7,3.1-3.7c2.1-1.5,4.6-2.5,7.1-3c1.7-0.4,3.6-0.4,5,0.2c1.5,0.7,2.3,2.3,1.6,3.7
				c-0.6,1.1-2,1.8-3.3,2.1c-0.2,0-0.5,0.1-0.7,0.1c-1.4,0-2.3,1.4-1.8,2.7c1.1,2.6,2.8,4.8,5.1,6.3c3.6-1.1,7.3-1.8,11-2.2
				c2.4-3.4,3.7-7.5,3.9-11.7c0.1-2.3-2-3.9-4.2-3.4c-0.3,0.1-0.5,0.1-0.8,0.2c-1.9,0.4-4.1,0.6-5.8-0.3c-2.4-1.2-2.8-4.3-1.4-6.3
				c1.4-2,4.2-3.2,6.9-4c4.1-1.1,8.4-1.3,12.6-0.7c2.9,0.4,5.8,1.3,7.7,3.2c1.9,1.9,2.3,4.9,0.3,6.7c-1.5,1.4-4.1,1.7-6.3,1.3
				c-0.4-0.1-0.7-0.2-1.1-0.3c-2.1-0.8-4.4,0.9-4.3,3.2c0.2,4.4,1.4,8.6,3.9,12.1c4.4,0.4,8.5,1.3,12.6,2.7c0.7-0.9,1.3-2,1.8-3.1
				c0.5-1.3-0.3-2.6-1.7-2.8c-0.2,0-0.3,0-0.5-0.1c-1.2-0.2-2.4-0.5-3.2-1.4c-1.1-1.2-0.7-3,0.5-3.9c1.2-0.9,3-1,4.7-0.8
				c2.5,0.2,5.1,1,7.4,2.2c1.5,0.8,3,2,3.7,3.4s0.3,3.2-1.2,3.9c-1.2,0.5-2.7,0.1-3.9-0.6c-0.2-0.1-0.4-0.2-0.6-0.4
				c-1.1-0.9-2.7-0.4-3.1,0.9c-0.4,1.2-0.6,2.5-0.7,3.7c4.7,1.9,9.1,4.3,13.1,7.2c3-0.9,5.6-2.7,7.8-5c1.2-1.3,0.8-3.4-0.8-4.2
				c-0.2-0.1-0.4-0.2-0.6-0.3c-1.4-0.8-2.8-1.8-3.4-3.1c-0.9-2,0.5-4.1,2.4-4.6c1.9-0.5,4.2,0.2,6.3,1.1c3.1,1.4,5.9,3.6,8,6.1
				c1.5,1.7,2.9,3.8,3.1,5.9c0.2,2.1-1.1,4.2-3.2,4.3c-1.7,0.1-3.4-1-4.5-2.4c-0.2-0.2-0.4-0.5-0.5-0.8c-0.9-1.6-3.2-1.7-4.3-0.3
				c-2,2.6-3.4,5.6-3.8,8.7c3.4,3.3,6.3,6.9,8.7,10.7c1.6-0.3,3.1-0.8,4.6-1.6c1.4-0.7,1.7-2.5,0.6-3.7c-0.1-0.1-0.3-0.3-0.4-0.4
				c-0.9-1-1.8-2.3-1.8-3.6c-0.1-1.9,1.6-3.2,3.3-3c1.7,0.2,3.4,1.4,4.8,2.8c2.1,2.1,3.7,4.6,4.8,7.4c0.7,1.9,1.2,4,0.8,5.7
				c-0.5,1.8-2.1,3.1-3.9,2.5c-1.4-0.4-2.5-1.9-3-3.3c-0.1-0.2-0.1-0.5-0.2-0.8c-0.3-1.6-2.1-2.3-3.4-1.5c-1.5,0.9-2.8,2-3.9,3.3
				c2,3.8,3.7,7.8,4.8,12c3.8,1.8,7.9,2.3,12.2,1.8c2.3-0.3,3.5-2.6,2.6-4.7c-0.1-0.3-0.2-0.5-0.3-0.8c-0.7-1.8-1.3-3.9-0.7-5.7
				c0.8-2.6,3.7-3.5,6-2.5c2.3,1.1,3.9,3.5,5.1,6.1c1.8,3.8,2.8,8,2.9,12.3c0.1,2.9-0.3,6-1.8,8c-1.5,2.2-4.4,3.1-6.5,1.5
				c-1.6-1.3-2.4-3.7-2.4-6c0-0.4,0-0.7,0.1-1.1c0.4-2.2-1.7-4.2-3.9-3.7c-4.3,1-8.2,2.9-11.2,6c0.1,1.5,0.2,3,0.2,4.6
				c0,3.3-0.3,6.6-0.8,9.6c1.5,0.8,3.2,1.5,4.9,1.9c1.7,0.4,3.3-1,3.2-2.8c0-0.2,0-0.4,0-0.7c0-1.6,0.1-3.3,1-4.5
				c1.3-1.7,3.7-1.6,5.1-0.2s2,3.7,2.1,5.9c0.3,3.3-0.1,6.8-1.2,9.9c-0.7,2.2-1.8,4.3-3.5,5.5c-1.7,1.2-4.1,1.1-5.2-0.7
				c-0.9-1.4-0.8-3.4-0.2-5.1c0.1-0.3,0.2-0.5,0.4-0.8c0.9-1.6-0.1-3.6-1.9-3.8c-1.9-0.3-3.9-0.2-5.7,0.1c-1,3.9-2.4,7.7-4.1,11.2
				c2.8,4.6,9.2,9.7,12.8,12.1c1.9,1.2,4.4,0.3,5-1.9c0.1-0.3,0.2-0.5,0.2-0.8c0.6-1.9,1.5-3.8,3.1-4.9c2.3-1.5,5.1-0.3,6.2,2
				c1.1,2.3,0.7,5.2,0,7.9c-1.1,4.1-3.1,7.9-5.7,11.2c-1.8,2.3-4.1,4.4-6.6,5.1c-2.5,0.7-5.4-0.4-5.9-3c-0.4-2,0.5-4.4,2-6.1
				c0.2-0.3,0.5-0.5,0.8-0.8c1.7-1.5,1.4-4.3-0.6-5.3c-4.1-2.1-12.3-5.3-17.7-5.2c-2.1,2.7-4.4,5.2-6.9,7.5c0.6,1.7,1.5,3.4,2.6,4.9
				c1,1.3,3,1.3,4-0.1c0.1-0.2,0.2-0.3,0.4-0.5c0.9-1.1,2-2.3,3.4-2.6c2-0.5,3.6,1.1,3.8,2.9c0.2,1.8-0.8,3.8-2,5.5
				c-1.8,2.6-4.2,4.8-6.9,6.4c-1.8,1.1-3.9,2-5.9,1.8c-1.9-0.2-3.6-1.7-3.4-3.6c0.2-1.5,1.5-2.9,2.9-3.7c0.2-0.1,0.5-0.2,0.8-0.3
				c1.6-0.6,2.1-2.6,0.9-3.9c-1.3-1.4-2.8-2.7-4.5-3.6c-3.8,2.9-7.9,5.4-12.2,7.4c-0.7,3-0.5,6.2,0.5,9.1c0.5,1.7,2.5,2.4,4,1.4
				c0.2-0.1,0.4-0.2,0.6-0.4c1.3-0.8,2.9-1.5,4.4-1.4c2.2,0.3,3.3,2.4,2.8,4.4c-0.5,1.9-2.2,3.6-4.1,4.9c-2.8,1.9-6,3.3-9.2,4
				c-2.3,0.5-4.7,0.6-6.6-0.3c-1.9-0.9-3.1-3-2.1-4.9c0.8-1.5,2.6-2.4,4.4-2.7c0.3,0,0.6-0.1,0.9-0.1c1.8,0,3.1-1.9,2.4-3.6
				c-1.3-3-3.2-5.7-5.7-7.6c-4.6,1.3-9.3,2.1-14.3,2.2c-0.3,1.1-0.5,2.3-0.6,3.5c-0.1,1.4,1.2,2.4,2.5,2c0.2,0,0.3-0.1,0.5-0.1
				c1.2-0.2,2.5-0.3,3.5,0.2c1.5,0.7,1.7,2.6,0.8,3.8c-0.9,1.2-2.5,2-4.2,2.4c-2.5,0.7-5.1,0.8-7.7,0.4c-1.7-0.3-3.5-0.8-4.7-1.9
				c-1.1-1.1-1.4-2.9-0.2-4c0.9-0.8,2.5-1,3.8-0.8c0.2,0,0.4,0.1,0.7,0.2c1.3,0.5,2.7-0.6,2.6-1.9c-0.1-1.3-0.3-2.5-0.6-3.7
				c-4.1-0.1-8-0.6-11.8-1.5c-4.4,2.8-7.6,7-9.6,11.8c-1.1,2.5,0.6,5.2,3.3,5.4c0.3,0,0.7,0.1,1,0.1c2.3,0.4,4.8,1,6.3,2.7
				c2.2,2.4,1.4,5.9-1,7.6c-2.4,1.7-6,1.9-9.2,1.6c-5-0.5-9.9-2-14.3-4.4c-3-1.6-5.9-3.8-7.3-6.7c-1.3-2.8-0.6-6.4,2.3-7.6
				c2.3-0.9,5.2-0.3,7.6,1.1c0.4,0.2,0.7,0.5,1.1,0.8c2.1,1.7,5.3,0.8,6.1-1.8c1.6-5.2,2-10.6,0.4-15.7c-3.1-1.6-6-3.4-8.7-5.5
				c-1.9,1-3.6,2.3-5.1,3.9c-1.2,1.3-0.8,3.4,0.8,4.2c0.2,0.1,0.4,0.2,0.6,0.3c1.4,0.8,2.8,1.8,3.4,3.1c0.9,2-0.5,4.1-2.4,4.6
				c-1.9,0.5-4.2-0.2-6.3-1.1c-3.1-1.4-5.9-3.6-8-6.1c-1.5-1.7-2.9-3.8-3.1-5.9c-0.2-2.1,1.1-4.2,3.2-4.3c1.7-0.1,3.4,1,4.5,2.4
				c0.2,0.2,0.4,0.5,0.5,0.8c0.9,1.6,3.2,1.7,4.3,0.3c1.4-1.8,2.5-3.8,3.1-5.9c-3-2.8-5.8-5.9-8.1-9.2c-4.2-0.4-8.2,0.6-12.1,2.5
				c-2,1-2.4,3.7-0.8,5.3c0.2,0.2,0.4,0.4,0.6,0.6c1.3,1.5,2.5,3.3,2.7,5.1c0.2,2.7-2.3,4.6-4.8,4.3c-2.5-0.2-4.9-2-6.9-4
				c-3-3-5.4-6.7-7-10.5c-1.1-2.7-1.8-5.7-1.1-8.1c0.7-2.6,3.1-4.4,5.6-3.6c2,0.6,3.5,2.7,4.3,4.8c0.1,0.3,0.2,0.7,0.3,1.1
				c0.4,2.2,3,3.4,4.9,2.1c3.7-2.4,6.8-5.6,8.5-9.4c-1.7-3.7-3-7.5-3.9-11.5c-1.8-0.3-3.6-0.4-5.5-0.2c-1.7,0.2-2.6,1.9-1.9,3.5
				c0.1,0.2,0.2,0.4,0.2,0.6c0.5,1.4,0.9,2.9,0.5,4.2c-0.6,1.9-2.7,2.6-4.4,1.8c-1.7-0.8-2.9-2.6-3.8-4.5c-1.3-2.8-2.1-6-2.1-9
				c-0.1-2.1,0.2-4.4,1.3-6s3.2-2.3,4.8-1.1c1.2,0.9,1.8,2.7,1.8,4.4c0,0.3,0,0.6-0.1,0.8c-0.3,1.7,1.2,3.1,2.9,2.7
				c1.9-0.4,3.7-1.1,5.4-2.1c-0.4-2.7-0.6-5.4-0.6-8.1c0-1.2,0-2.4,0.1-3.6c-3.3-3.5-7.7-5.8-12.4-6.9c-2.5-0.6-4.7,1.4-4.5,3.9
				c0,0.3,0,0.6,0,0.9c0,2.2-0.2,4.6-1.4,6.3c-1.8,2.5-5.2,2.3-7.2,0.3s-2.8-5.2-3-8.3C99.9,372.2,100.5,367.4,102,362.8z"/>
			<g>
				<g>
					<path class="st22" d="M198.3,343.5c-0.4,2.1,1.3,4.2,3.6,6.4c1.1,1.1,2.5,2.3,3.9,3.5c1.4,1.2,3,2.5,4.6,3.8
						c1.6,1.3,3.1,2.6,4.6,3.8c1.4,1.2,2.8,2.3,4.1,3.2c2.6,1.8,5,3.1,6.9,2.3c1.9-0.7,3-3.5,2.2-7.6c-0.4-2-1.2-4.3-2.6-6.6
						c-1.4-2.3-3.3-4.6-5.7-6.6s-5-3.4-7.5-4.4c-2.5-0.9-4.9-1.4-7-1.4C201.1,340,198.6,341.5,198.3,343.5z"/>
				</g>
				<g>
					<path class="st22" d="M226.4,402.9c1.5,0.5,3.4-0.7,5.1-3.2c1.7-2.5,3-6.5,3.1-10.9c0.1-4.5-1-8.4-2.5-11s-3.4-3.9-4.9-3.4
						c-1.6,0.4-2.5,2.3-3.1,4.9s-0.9,5.8-1,9.3c-0.1,3.6,0,6.8,0.5,9.3C224.1,400.5,224.9,402.4,226.4,402.9z"/>
				</g>
				<g>
					<path class="st22" d="M182.1,426.8c-0.2,1.4,1.2,3,3.8,4c2.6,1.1,6.3,1.6,10.3,0.9c4.1-0.7,7.5-2.3,9.5-4.1
						c2.1-1.8,2.9-3.7,2.3-5c-0.6-1.3-2.5-1.9-4.9-2c-2.4-0.1-5.4,0.2-8.6,0.7c-3.2,0.5-6.2,1.2-8.3,2.1
						C183.9,424.2,182.3,425.3,182.1,426.8z"/>
				</g>
				<g>
					<path class="st22" d="M154.3,378.9c-2.8,3.8,2.6,12.5,12.1,19.6c9.4,7.1,19.4,9.7,22.2,6s-2.6-12.5-12.1-19.6
						C167,377.8,157.1,375.1,154.3,378.9z"/>
				</g>
				<g>
					<path class="st22" d="M196.5,368c-1.7,0.7-2.5,3.1-2.7,6.2c-0.2,3.1,0.2,7,0.9,11.1s1.7,7.9,3,10.7c1.3,2.8,2.8,4.8,4.7,4.9
						c1.8,0.1,3.6-1.7,4.8-5s1.6-7.9,0.7-12.9c-0.9-5-2.9-9.2-5.1-11.8C200.6,368.4,198.2,367.3,196.5,368z"/>
				</g>
				<g>
					<path class="st22" d="M204.2,414c0.4,0.7,1.6,0.9,3.1,0.5c1.5-0.5,3.4-1.7,4.9-3.5c1.5-1.9,2.3-4,2.4-5.6
						c0.1-1.6-0.4-2.7-1.1-2.9c-0.8-0.2-1.7,0.3-2.7,1.2c-1,0.9-2.1,2.2-3.2,3.6c-1.1,1.4-2.1,2.7-2.8,3.9
						C204.1,412.2,203.8,413.3,204.2,414z"/>
				</g>
				<g>
					<path class="st22" d="M208.7,365.4c-1.2,1.1,0,4.2,2.1,7.3c2.1,3.1,4.6,5.3,6,4.6c1.4-0.7,1.1-4.3-1.3-7.9
						C213.1,366,209.8,364.4,208.7,365.4z"/>
				</g>
				<g>
					<path class="st22" d="M165.7,356.3c0.6,1.5,2.5,2.3,5.2,2.6c2.6,0.3,5.9,0.3,9.4,0c3.6-0.3,6.8-0.7,9.2-1.5
						c2.5-0.7,4.4-1.8,4.7-3.4c0.3-1.5-1-3.3-3.7-4.7c-2.7-1.4-6.7-2.3-11.1-2c-4.5,0.3-8.2,1.8-10.7,3.6
						C166.2,353,165.1,354.9,165.7,356.3z"/>
				</g>
				<g>
					<path class="st22" d="M168.5,340.7c0.4,0.8,1.4,1.1,2.8,1.2c1.4,0.1,3.1,0,5-0.2s3.6-0.5,4.9-0.9c1.3-0.4,2.3-1,2.5-1.8
						s-0.5-1.8-2-2.5c-1.4-0.7-3.6-1.2-6-0.9c-2.4,0.3-4.5,1.1-5.7,2.2C168.6,338.8,168.2,339.9,168.5,340.7z"/>
				</g>
				<g>
					<path class="st22" d="M145,373.8c1.4,0.1,2.8-1.1,4.2-2.9s2.9-4.1,4.4-6.6c1.6-2.5,3-4.9,3.9-6.9s1.4-3.9,0.6-5.1
						c-0.8-1.2-2.8-1.5-5.4-0.4c-1.3,0.5-2.7,1.4-4.1,2.6c-1.4,1.2-2.7,2.7-3.8,4.5s-1.8,3.7-2.3,5.4c-0.4,1.8-0.6,3.4-0.4,4.8
						C142.5,372,143.6,373.7,145,373.8z"/>
				</g>
				<g>
					<path class="st22" d="M153,411c0.8-0.9,0.6-2.3,0.1-4.1c-0.5-1.7-1.4-3.7-2.4-5.9c-1-2.2-1.9-4.2-2.8-5.7
						c-0.9-1.5-1.9-2.6-3.1-2.7c-1.1,0-2.2,1.2-2.7,3.4c-0.5,2.2-0.3,5.3,1.1,8.2c1.4,3,3.5,5.3,5.5,6.4
						C150.7,411.9,152.3,411.9,153,411z"/>
				</g>
				<g>
					<path class="st22" d="M162.1,418c-0.6,0.6-0.6,1.8,0.1,3.2c0.7,1.4,2.2,3.1,4.2,4.4c2,1.3,4.2,1.8,5.8,1.8
						c1.6,0,2.7-0.5,2.9-1.3s-0.4-1.8-1.4-2.7c-1-1-2.4-2-4.1-3c-1.6-1-3.2-1.8-4.5-2.3C163.8,417.6,162.7,417.5,162.1,418z"/>
				</g>
				<g>
					<path class="st22" d="M162.2,370.5c-0.3,2.6,5.1,5.3,12,5.3c6.9,0,12.3-2.6,12-5.2c-0.2-2.7-5.6-4.3-12-4.4
						C167.8,366.3,162.5,367.9,162.2,370.5z"/>
				</g>
				<g>
					<path class="st22" d="M164.5,407.2c-0.8,0.9-0.6,2.8,0.8,4.8c1.4,2,4.2,4.2,7.7,5.4c3.5,1.2,7,1.2,9.3,0.5
						c2.4-0.7,3.7-2,3.6-3.2c-0.1-1.3-1.4-2.3-3.2-3.3s-4.2-1.9-6.8-2.8c-2.6-0.9-5-1.7-7-2.1C167.1,406.3,165.4,406.3,164.5,407.2z
						"/>
				</g>
				<g>
					<path class="st22" d="M214.3,422.6c0.6,0.9,2.1,1.1,4,0.5s4.2-2,6.1-4c2-2.1,3.2-4.4,3.7-6.3c0.5-1.9,0.2-3.4-0.7-4
						c-1-0.6-2.4-0.3-3.9,0.6c-1.6,0.9-3.3,2.3-5,4.1c-1.7,1.8-3,3.6-3.8,5.2C213.9,420.2,213.6,421.7,214.3,422.6z"/>
				</g>
			</g>
			<g>
				<path class="st23" d="M162.6,419.8c-0.5,2.8,0.4,5.8,3.2,8.5c2.8,2.8,7.4,5.3,13.5,6.5c3.1,0.6,6.5,0.9,10.1,0.7
					c3.7-0.2,7.7-0.8,11.6-2c8-2.3,16.6-7.1,23.8-14.3c7.1-7.3,11.6-15.9,13.8-24c1.1-4.1,1.6-8,1.8-11.7c0.1-3.7-0.3-7.2-0.9-10.1
					c-1.4-6.2-3.9-10.6-6.8-13.3s-5.9-3.6-8.5-3c-2.8,0.6-5.2,2.6-7.3,5.1c-2.1,2.5-4.2,5.6-6.4,8.8c-4.2,6.6-9.2,13.7-15,19.7
					c-5.9,6-12.9,11-19.4,15.4c-3.2,2.2-6.3,4.4-8.7,6.5C165,414.7,163.1,416.9,162.6,419.8z"/>
			</g>
		</g>
		<g>
			<path class="st21" d="M8.9,310.6c-1.1-2.1-1.9-4.4-1.6-6.5c0.3-2.1,2-3.8,4.1-3.4c1.6,0.3,3.1,1.8,3.9,3.4
				c0.1,0.3,0.2,0.6,0.3,0.9c0.5,1.8,2.7,2.4,4.1,1.3c2.8-2.3,5-5.2,6.1-8.5c-1.1-1.8-2-3.7-2.7-5.6c-2.1-0.8-4.4-0.9-6.7-0.3
				c-1.1,0.3-1.7,1.5-1.1,2.5c0.1,0.1,0.1,0.2,0.2,0.4c0.5,0.9,0.9,1.9,0.7,2.9c-0.2,1.4-1.7,2-2.9,1.6s-2.2-1.6-3-2.8
				c-1.1-1.8-1.9-4-2.2-6.1c-0.2-1.5-0.2-3,0.4-4.2c0.6-1.2,2.1-1.8,3.2-1.1c0.9,0.5,1.4,1.8,1.6,2.9c0,0.2,0,0.4,0,0.6
				c-0.1,1.2,1.1,2,2.2,1.7c2.2-0.8,4.2-2.1,5.6-3.9c-0.6-2.7-1-5.5-1.1-8.1c-2.3-1.9-5.2-3-8.2-3.3c-1.6-0.2-2.9,1.2-2.6,2.8
				c0,0.2,0.1,0.4,0.1,0.6c0.2,1.4,0.2,3-0.5,4.1c-1,1.7-3.2,1.8-4.6,0.7c-1.4-1.1-2.1-3.1-2.5-5.1c-0.6-3-0.6-6.1,0.1-9
				c0.4-2,1.2-4.1,2.6-5.4c1.4-1.3,3.6-1.4,4.8,0.1c0.9,1.2,1.1,3,0.7,4.6c-0.1,0.3-0.2,0.5-0.3,0.8c-0.6,1.5,0.5,3.2,2.1,3.2
				c3.2,0.1,6.3-0.7,8.8-2.3c0.4-2.6,1.1-5.3,2-7.8c-0.9-1.7-2.4-3-4.2-3.8c-0.9-0.4-1.9,0.1-2.1,1.1c0,0.1,0,0.2-0.1,0.4
				c-0.2,0.8-0.5,1.7-1.1,2.3c-0.9,0.8-2.2,0.4-2.8-0.5c-0.6-0.9-0.6-2.2-0.4-3.4c0.3-1.8,0.9-3.6,1.9-5.2c0.7-1.1,1.5-2.1,2.6-2.5
				c1.1-0.4,2.3-0.1,2.7,1c0.3,0.9,0,1.9-0.6,2.7c-0.1,0.1-0.2,0.3-0.3,0.4c-0.7,0.7-0.4,1.9,0.5,2.3c1.9,0.7,3.9,1,5.8,0.5
				c1.2-2.4,2.7-4.7,4.4-6.9c-0.6-2.9-2.1-5.6-4.2-7.9c-1.1-1.2-3-0.9-3.8,0.5c-0.1,0.2-0.2,0.3-0.3,0.5c-0.8,1.2-1.7,2.4-3,2.9
				c-1.9,0.7-3.6-0.6-4-2.4c-0.4-1.8,0.4-3.8,1.3-5.6c1.5-2.7,3.5-5.1,5.9-7c1.6-1.3,3.6-2.4,5.5-2.4c1.9-0.1,3.7,1.2,3.6,3.1
				c0,1.5-1.1,3-2.4,3.9c-0.2,0.2-0.5,0.3-0.7,0.4c-1.5,0.7-1.7,2.8-0.5,3.8c2.4,2.1,5.2,3.5,8.2,4c2.4-2.1,5-3.8,7.7-5.3
				c-0.1-0.8-0.4-1.6-0.7-2.4c-0.4-0.9-1.5-1.2-2.3-0.5c-0.1,0.1-0.2,0.2-0.3,0.2c-0.7,0.5-1.5,1-2.3,1c-1.2,0-1.9-1.1-1.8-2.2
				c0.2-1.1,1-2.1,1.9-2.9c1.4-1.2,3-2.2,4.8-2.7c1.2-0.4,2.5-0.6,3.6-0.3c1.1,0.4,1.8,1.4,1.4,2.5c-0.3,0.8-1.3,1.5-2.2,1.7
				c-0.2,0-0.3,0.1-0.5,0.1c-1,0.1-1.5,1.2-1.1,2.1c0.4,0.8,1,1.5,1.6,2.2c3.3-1.5,6.8-2.6,10.2-3.3c1-2,1.4-4.3,1.2-6.5
				c-0.1-1.3-1.4-2.1-2.6-1.7c-0.2,0.1-0.3,0.1-0.5,0.2c-1.1,0.3-2.3,0.6-3.3,0.2c-1.5-0.5-1.9-2.3-1.2-3.5c0.7-1.3,2.2-2.1,3.7-2.7
				c2.3-0.9,4.8-1.3,7.2-1.2c1.7,0.1,3.4,0.4,4.6,1.3c1.2,0.9,1.6,2.6,0.6,3.8c-0.8,0.9-2.2,1.3-3.5,1.2c-0.2,0-0.4-0.1-0.6-0.1
				c-1.3-0.3-2.5,0.8-2.3,2.1c0.4,2.3,1.3,4.6,2.7,6.3c3.4-0.1,6.7,0.1,9.9,0.8c0.6-1,1.1-2,1.5-3.2c0.3-1.1-0.5-2.1-1.6-2.1
				c-0.1,0-0.3,0-0.4,0c-1,0-2-0.2-2.8-0.8c-1-0.9-0.9-2.4,0.1-3.2c0.9-0.8,2.4-1.1,3.8-1.1c2.1,0,4.3,0.3,6.2,1.1
				c1.3,0.5,2.7,1.3,3.4,2.4c0.7,1.1,0.6,2.6-0.6,3.3c-0.9,0.5-2.2,0.4-3.2-0.1c-0.2-0.1-0.3-0.2-0.5-0.3c-1-0.6-2.2-0.1-2.5,1
				c-0.2,1.2-0.3,2.5-0.2,3.7c3,0.8,5.9,2,8.6,3.5c2.8-1.1,5.2-3,7-5.5c1-1.3,0.4-3.1-1.2-3.7c-0.2-0.1-0.4-0.1-0.6-0.2
				c-1.3-0.5-2.7-1.3-3.4-2.5c-1-1.7,0-3.7,1.7-4.3c1.7-0.7,3.8-0.3,5.7,0.4c2.9,1,5.6,2.6,7.9,4.6c1.6,1.4,3,3.1,3.3,5
				c0.4,1.9-0.5,3.8-2.4,4.1c-1.5,0.2-3.1-0.6-4.3-1.7c-0.2-0.2-0.4-0.4-0.5-0.6c-1-1.3-3-1.2-3.9,0.2c-1.6,2.7-2.6,5.8-2.5,8.8
				c0.8,0.7,1.7,1.4,2.5,2.2c1.7,1.6,3.3,3.4,4.7,5.2c1.2-0.4,2.3-0.9,3.4-1.6c1.1-0.7,1.1-2.2,0.1-3c-0.1-0.1-0.2-0.2-0.4-0.3
				c-0.8-0.8-1.6-1.7-1.8-2.7c-0.3-1.5,1-2.7,2.4-2.8c1.4,0,2.9,0.8,4.1,1.8c1.9,1.5,3.5,3.4,4.6,5.6c0.8,1.5,1.4,3.1,1.1,4.6
				c-0.2,1.5-1.4,2.7-2.9,2.4c-1.2-0.2-2.2-1.3-2.7-2.4c-0.1-0.2-0.2-0.4-0.2-0.6c-0.4-1.2-1.9-1.7-2.9-0.9c-1.1,0.9-2,1.9-2.8,3
				c1.6,2.5,2.8,5,3.9,7.7c3.8,0.8,9.6,0,12.6-0.7c1.6-0.4,2.3-2.2,1.5-3.6c-0.1-0.2-0.2-0.3-0.3-0.5c-0.7-1.3-1.2-2.7-1-4
				c0.3-1.9,2.4-2.8,4.1-2.2c1.7,0.6,3.1,2.2,4.1,3.9c1.6,2.6,2.6,5.6,3.1,8.5c0.3,2.1,0.3,4.3-0.6,5.9c-0.9,1.7-2.9,2.6-4.5,1.6
				c-1.3-0.8-2-2.5-2.2-4.1c0-0.3,0-0.5,0-0.8c0.1-1.6-1.5-2.9-3.1-2.3c-3.2,1.1-8.8,3.8-11.5,6.7c0.4,2.4,0.6,4.9,0.5,7.3
				c1.2,0.5,2.5,0.9,3.8,1c1.2,0.1,2.2-0.9,1.9-2.1c0-0.1-0.1-0.3-0.1-0.4c-0.1-1-0.2-2.2,0.3-3.1c0.7-1.3,2.4-1.4,3.4-0.5
				c1,0.8,1.6,2.3,1.9,3.8c0.4,2.2,0.4,4.5,0,6.8c-0.3,1.5-0.9,3-1.9,4c-1,0.9-2.7,1.1-3.5,0c-0.7-0.9-0.8-2.2-0.5-3.4
				c0-0.2,0.1-0.4,0.2-0.6c0.5-1.1-0.3-2.4-1.6-2.4c-1.4,0-2.8,0.2-4.1,0.6c-0.3,3.4-1.1,6.8-2.2,10c1.2,1.8,3,3.3,5,4.3
				c1.2,0.6,2.5-0.1,2.7-1.4c0-0.2,0.1-0.3,0.1-0.5c0.2-1.1,0.6-2.3,1.5-3c1.2-1,2.9-0.5,3.6,0.7c0.7,1.2,0.8,2.9,0.5,4.5
				c-0.4,2.4-1.2,4.8-2.5,6.8c-0.9,1.4-2,2.7-3.4,3.3c-1.4,0.6-3.1,0.1-3.6-1.3c-0.4-1.1,0-2.5,0.7-3.6c0.1-0.2,0.3-0.3,0.4-0.5
				c0.9-1,0.5-2.5-0.7-3c-2.2-0.8-4.5-1.2-6.8-0.8c-1.6,3-3.6,5.9-5.9,8.5c0.4,0.7,0.9,1.4,1.5,2.1c0.7,0.7,1.8,0.6,2.3-0.3
				c0.1-0.1,0.1-0.2,0.2-0.3c0.5-0.7,1-1.5,1.8-1.7c1.1-0.4,2.2,0.4,2.4,1.5c0.2,1.1-0.2,2.3-0.8,3.4c-0.9,1.6-2.1,3.1-3.6,4.2
				c-1,0.8-2.2,1.4-3.3,1.5c-1.1,0-2.2-0.7-2.2-1.9c0-0.9,0.7-1.8,1.5-2.4c0.1-0.1,0.3-0.2,0.4-0.3c0.9-0.4,1-1.7,0.3-2.3
				c-0.7-0.6-1.5-1.1-2.3-1.5c-2.1,2.1-4.3,3.9-6.7,5.5c-0.7,3.7-0.1,7.5,1.4,10.9c0.8,1.8,3,2.3,4.5,1c0.2-0.2,0.4-0.3,0.5-0.5
				c1.3-1,2.9-2,4.5-2c2.3,0,3.8,2.2,3.5,4.3s-1.9,4.1-3.7,5.6c-2.7,2.4-6,4.2-9.3,5.4c-2.4,0.8-4.9,1.2-7.1,0.5
				c-2.1-0.7-3.6-2.8-2.8-4.9c0.6-1.6,2.5-2.9,4.3-3.4c0.3-0.1,0.6-0.1,1-0.2c1.9-0.2,3-2.4,2.1-4.1c-1.9-3.4-4.6-6.3-8-7.9
				c-2.4,0.8-4.8,1.5-7.2,1.9c-0.4,1.5-0.6,3-0.5,4.6c0.1,1.3,1.4,2.1,2.6,1.7c0.2-0.1,0.3-0.1,0.5-0.2c1.1-0.3,2.3-0.6,3.3-0.2
				c1.5,0.5,1.9,2.3,1.2,3.5c-0.7,1.3-2.2,2.1-3.7,2.7c-2.3,0.9-4.8,1.3-7.2,1.2c-1.7-0.1-3.4-0.4-4.6-1.3c-1.2-0.9-1.6-2.6-0.6-3.8
				c0.8-0.9,2.2-1.3,3.5-1.2c0.2,0,0.4,0.1,0.6,0.1c1.3,0.3,2.5-0.8,2.3-2.1c-0.3-1.6-0.8-3.2-1.5-4.6c-3,0.2-5.9,0.1-8.8-0.3
				c-2.3,2-3.8,4.6-4.7,7.6c-0.5,1.6,0.7,3.1,2.3,3.1c0.2,0,0.4,0,0.6,0c1.4,0.1,3,0.3,4,1.2c1.5,1.3,1.3,3.5-0.1,4.6
				c-1.4,1.2-3.5,1.6-5.5,1.6c-3,0.1-6.1-0.5-8.9-1.6c-1.9-0.8-3.8-1.9-4.8-3.5s-0.8-3.8,0.9-4.7c1.3-0.7,3.1-0.5,4.6,0.1
				c0.2,0.1,0.5,0.2,0.7,0.4c1.4,0.9,3.2,0.1,3.6-1.5c0.6-3.1,0.4-6.3-0.7-9.1c-2.7-0.9-5.4-2.2-7.9-3.7c-1.1,0.8-2,1.7-2.8,2.8
				c-0.7,1-0.3,2.3,0.9,2.7c0.1,0,0.3,0.1,0.4,0.2c1,0.4,2,0.9,2.5,1.8c0.7,1.3,0,2.7-1.2,3.2c-1.2,0.5-2.8,0.2-4.2-0.3
				c-2.1-0.7-4.1-1.9-5.8-3.4c-1.1-1-2.2-2.3-2.5-3.7c-0.3-1.4,0.4-2.8,1.8-3c1.1-0.2,2.3,0.4,3.2,1.3c0.1,0.1,0.3,0.3,0.4,0.5
				c0.7,1,2.2,0.9,2.8-0.1c0.7-1.2,1.3-2.5,1.6-3.8c-1.6-1.1-3.1-2.4-4.5-3.7c-0.6-0.6-1.2-1.2-1.8-1.9c-3.5,0-6.8,1.2-9.7,3.1
				c-1.5,1-1.6,3.2-0.2,4.3c0.2,0.1,0.3,0.3,0.5,0.4c1.2,1.1,2.3,2.4,2.6,3.9c0.4,2.2-1.4,3.9-3.4,3.9s-4.1-1.1-5.9-2.6
				C12.7,316.3,10.5,313.6,8.9,310.6z"/>
			<g>
				<g>
					<path class="st22" d="M46.5,250.9c0.9,1.2,2.8,1.4,5.1,1.3c1.1-0.1,2.4-0.2,3.7-0.3c1.3-0.1,2.8-0.3,4.2-0.5
						c1.5-0.2,2.9-0.3,4.2-0.5s2.6-0.4,3.7-0.6c2.2-0.4,4-1.1,4.6-2.4c0.6-1.3-0.4-3.3-2.9-4.9c-1.2-0.8-2.9-1.5-4.7-1.9
						c-1.9-0.4-4-0.5-6.2-0.3c-2.2,0.3-4.3,0.9-6,1.7c-1.7,0.9-3.2,1.9-4.2,3C46.1,247.6,45.6,249.7,46.5,250.9z"/>
				</g>
				<g>
					<path class="st22" d="M91.3,265.6c1-0.5,1.4-2.1,0.8-4.2c-0.5-2.1-1.9-4.8-4.2-7c-2.3-2.3-4.9-3.7-7-4.2s-3.7-0.1-4.2,0.9
						s0,2.5,1,4c1.1,1.6,2.6,3.3,4.4,5.2c1.8,1.8,3.6,3.4,5.2,4.4C88.9,265.6,90.3,266.2,91.3,265.6z"/>
				</g>
				<g>
					<path class="st22" d="M81.9,300.5c0.7,0.8,2.1,0.9,4,0c1.8-0.8,3.9-2.5,5.6-5c1.7-2.4,2.5-5,2.6-7s-0.5-3.4-1.5-3.7
						c-1-0.3-2.2,0.4-3.5,1.6s-2.6,2.9-3.9,4.9c-1.3,1.9-2.4,3.8-3.1,5.4C81.4,298.3,81.2,299.7,81.9,300.5z"/>
				</g>
				<g>
					<path class="st22" d="M43.1,291.3c0.6,3.3,7.9,4.9,16.2,3.4c8.3-1.5,14.7-5.3,14.1-8.6c-0.6-3.3-7.9-4.9-16.2-3.4
						C48.9,284.1,42.5,288,43.1,291.3z"/>
				</g>
				<g>
					<path class="st22" d="M58.4,263.8c-0.5,1.3,0.4,2.8,1.9,4.5c1.5,1.6,3.7,3.4,6.3,5c2.5,1.7,5,3,7.1,3.8c2.1,0.7,3.9,0.9,4.8,0
						c1-0.9,0.9-2.8-0.2-5s-3.4-4.8-6.4-6.8c-3.1-2-6.3-3.1-8.7-3.2C60.5,261.9,58.8,262.6,58.4,263.8z"/>
				</g>
				<g>
					<path class="st22" d="M86,282.7c0.6,0.1,1.3-0.3,1.8-1.4c0.5-1,0.8-2.6,0.6-4.3c-0.2-1.7-1-3.2-1.7-4c-0.8-0.9-1.6-1.1-2.1-0.9
						c-0.5,0.3-0.7,1.1-0.7,2c0,1,0.1,2.1,0.3,3.4c0.2,1.3,0.4,2.4,0.6,3.4C85.1,281.8,85.5,282.5,86,282.7z"/>
				</g>
				<g>
					<path class="st22" d="M63,256.3c0,1.1,2.2,2.1,4.9,2.5c2.7,0.4,5,0.2,5.4-0.9c0.4-1.1-1.7-2.7-4.7-3.2
						C65.5,254.3,63,255.2,63,256.3z"/>
				</g>
				<g>
					<path class="st22" d="M37,274.1c1.1,0.4,2.4-0.2,3.9-1.4c1.5-1.2,3.1-2.9,4.7-4.9s3-3.9,3.9-5.6c0.9-1.7,1.2-3.2,0.6-4.1
						c-0.6-0.9-2.2-1.1-4.3-0.4c-2.1,0.7-4.5,2.4-6.6,4.9c-2,2.5-3.2,5.2-3.5,7.4C35.5,272.3,35.9,273.7,37,274.1z"/>
				</g>
				<g>
					<path class="st22" d="M30.3,265c0.6,0.2,1.3-0.2,2-0.9s1.6-1.6,2.4-2.7c0.8-1.1,1.5-2.1,2-3c0.4-0.9,0.6-1.7,0.3-2.2
						c-0.3-0.5-1.2-0.6-2.3-0.2c-1.1,0.4-2.4,1.3-3.5,2.7c-1.1,1.4-1.6,2.9-1.7,4.1S29.7,264.8,30.3,265z"/>
				</g>
				<g>
					<path class="st22" d="M35.9,293.6c0.8-0.7,0.8-2,0.6-3.6s-0.7-3.5-1.3-5.6c-0.5-2.1-1.1-4-1.7-5.5c-0.6-1.5-1.3-2.6-2.3-2.8
						c-1-0.2-2.1,0.7-2.9,2.6c-0.4,0.9-0.6,2.1-0.7,3.4c-0.1,1.3,0.1,2.8,0.5,4.2c0.4,1.5,1,2.8,1.7,3.9c0.7,1.1,1.5,2,2.3,2.6
						C33.7,294.1,35.2,294.3,35.9,293.6z"/>
				</g>
				<g>
					<path class="st22" d="M59.2,307.8c-0.1-0.8-0.9-1.5-2.1-2c-1.2-0.6-2.6-1.1-4.2-1.7c-1.6-0.6-3.1-1.1-4.4-1.4
						c-1.3-0.3-2.3-0.3-2.9,0.3c-0.6,0.6-0.5,1.7,0.4,3.1c0.9,1.3,2.6,2.8,4.9,3.6c2.3,0.8,4.5,0.8,6,0.3
						C58.5,309.5,59.3,308.6,59.2,307.8z"/>
				</g>
				<g>
					<path class="st22" d="M67.4,306.6c0,0.6,0.6,1.2,1.7,1.5c1.1,0.3,2.7,0.4,4.4,0c1.7-0.4,3-1.3,3.8-2.1c0.8-0.8,1.1-1.7,0.7-2.2
						c-0.3-0.5-1.1-0.7-2.1-0.6c-1,0.1-2.2,0.3-3.6,0.7c-1.3,0.3-2.5,0.7-3.4,1.2C68,305.5,67.5,306,67.4,306.6z"/>
				</g>
				<g>
					<path class="st22" d="M42.7,283c1.2,1.4,5.3-0.1,8.6-3.7c3.5-3.6,4.8-7.7,3.3-8.8c-1.5-1.2-5.1,0.8-8.2,4.1
						C43.2,278,41.4,281.6,42.7,283z"/>
				</g>
				<g>
					<path class="st22" d="M63,300c0.1,0.9,1.1,1.7,2.9,1.9c1.8,0.3,4.2-0.1,6.6-1.3c2.4-1.2,4.1-3,4.9-4.6s0.8-2.9,0.1-3.5
						c-0.7-0.6-1.9-0.4-3.3,0c-1.4,0.5-3,1.3-4.8,2.2c-1.8,0.9-3.3,1.8-4.5,2.6C63.8,298.2,62.9,299.1,63,300z"/>
				</g>
				<g>
					<path class="st22" d="M95.6,281.7c0.8,0.1,1.6-0.6,2.3-1.8c0.6-1.3,1-3.1,0.9-5.2c-0.1-2.1-0.7-3.9-1.5-5.1s-1.7-1.8-2.5-1.6
						c-0.8,0.2-1.3,1.1-1.6,2.3c-0.3,1.3-0.4,2.9-0.3,4.6c0.1,1.8,0.4,3.3,0.8,4.6C94.2,280.7,94.8,281.5,95.6,281.7z"/>
				</g>
			</g>
			<g class="st24">
				<path class="st25" d="M45.1,302.5c-0.4,2,0.3,4.1,2.3,6.2c2,2,5.3,3.8,9.7,4.7c2.2,0.5,4.7,0.6,7.4,0.5c2.7-0.2,5.5-0.6,8.3-1.4
					c5.8-1.7,11.9-5.1,17.1-10.2c5.1-5.3,8.3-11.4,9.9-17.3c0.8-2.9,1.2-5.8,1.3-8.4c0-2.7-0.2-5.1-0.7-7.4c-1-4.4-2.8-7.7-4.9-9.6
					s-4.2-2.6-6.2-2.2s-3.7,1.8-5.3,3.6c-1.5,1.8-3,4-4.6,6.4c-3,4.7-6.7,9.8-10.7,14.1c-4.2,4.3-9.2,7.9-13.9,11
					c-2.3,1.6-4.5,3.1-6.3,4.7C46.9,298.8,45.5,300.5,45.1,302.5z"/>
			</g>
		</g>
		<g>
			<path class="st21" d="M191.4,124c2.9-0.1,6,0.3,8.1,1.8s3.1,4.4,1.5,6.5c-1.3,1.6-3.7,2.4-6,2.4c-0.4,0-0.8,0-1.1-0.1
				c-2.3-0.4-4.2,1.7-3.7,3.9c1,4.5,3.1,8.5,6.3,11.5c2.6-0.2,5.2-0.1,7.8,0.1c2.1-1.9,3.5-4.5,4.1-7.4c0.3-1.4-0.8-2.7-2.3-2.6
				c-0.2,0-0.4,0-0.5,0c-1.3,0-2.7-0.1-3.6-0.8c-1.4-1-1.3-3-0.2-4.2c1.1-1.1,3-1.6,4.8-1.7c2.7-0.2,5.5,0.1,8,1
				c1.8,0.6,3.5,1.5,4.5,2.9s0.9,3.3-0.5,4.3c-1.1,0.7-2.8,0.6-4.1,0.1c-0.2-0.1-0.4-0.2-0.7-0.3c-1.3-0.7-2.9,0.1-3.1,1.5
				c-0.4,2.9,0,5.9,1.3,8.3c3.4,0.8,6.7,1.9,9.8,3.4c3.4-1.6,6.3-4.2,8.3-7.4c1.1-1.7,0.2-4-1.7-4.5c-0.2-0.1-0.5-0.1-0.7-0.2
				c-1.7-0.6-3.5-1.4-4.4-2.8c-1.4-2.1-0.3-4.6,1.8-5.6c2-1,4.7-0.7,7.2,0c3.7,1,7.2,2.8,10.1,5.2c2.1,1.6,3.9,3.6,4.6,5.9
				c0.6,2.3-0.4,4.8-2.7,5.4c-1.8,0.4-4-0.5-5.5-1.8c-0.3-0.2-0.5-0.5-0.7-0.7c-1.3-1.6-3.9-1.3-4.8,0.6c-1.8,3.5-2.8,7.4-2.4,11.2
				c2.7,1.9,5.3,4.2,7.6,6.6c2.4-0.1,4.7-1.1,6.6-2.5c1-0.7,1-2.2-0.1-2.9c-0.1-0.1-0.2-0.2-0.4-0.3c-0.8-0.7-1.7-1.5-1.9-2.5
				c-0.3-1.5,0.8-2.7,2.2-2.8c1.4-0.1,2.8,0.6,4.1,1.5c1.9,1.3,3.5,3.1,4.8,5.1c0.8,1.4,1.5,2.9,1.4,4.3s-1.2,2.7-2.7,2.5
				c-1.1-0.2-2.2-1.1-2.8-2.2c-0.1-0.2-0.2-0.4-0.3-0.6c-0.4-1.2-1.9-1.5-2.9-0.7c-1.9,1.7-3.2,3.8-3.8,6.2c2,2.7,3.8,5.6,5.3,8.6
				c3.6,1,7.5,0.8,11.1-0.3c2-0.6,2.7-2.9,1.6-4.6c-0.1-0.2-0.3-0.4-0.4-0.6c-0.9-1.5-1.7-3.3-1.6-5c0.3-2.5,2.7-3.7,4.9-3.1
				c2.2,0.6,4,2.5,5.5,4.6c2.2,3.1,3.7,6.8,4.5,10.4c0.5,2.6,0.7,5.3-0.3,7.5s-3.4,3.5-5.5,2.3c-1.6-0.9-2.7-2.9-3.1-4.9
				c-0.1-0.3-0.1-0.7-0.1-1c0-2.1-2.1-3.5-4-2.7c-3.7,1.5-6.9,3.9-9,7.1c1,3.8,1.5,7.7,1.7,11.5c1,0.3,2.1,0.5,3.1,0.5
				c1.2,0.1,2.2-1.1,1.8-2.3c0-0.1-0.1-0.3-0.1-0.4c-0.2-1.1-0.3-2.2,0.1-3.2c0.7-1.3,2.3-1.5,3.4-0.8c1.1,0.8,1.8,2.3,2.2,3.8
				c0.6,2.2,0.7,4.6,0.4,6.9c-0.2,1.6-0.7,3.2-1.7,4.2s-2.7,1.3-3.6,0.2c-0.8-0.8-0.9-2.2-0.7-3.4c0-0.2,0.1-0.4,0.2-0.6
				c0.4-1.2-0.5-2.4-1.7-2.4c-1.1,0.1-2.3,0.2-3.4,0.6c-0.1,4.6-0.8,9-2,13.3c1.7,2.2,4,3.9,6.7,5.1c1.5,0.6,3.2-0.4,3.3-2
				c0-0.2,0-0.4,0.1-0.6c0.2-1.4,0.6-2.9,1.6-3.9c1.4-1.4,3.6-0.9,4.6,0.6s1.2,3.6,1,5.6c-0.3,3-1.2,6.1-2.6,8.7
				c-1,1.8-2.3,3.6-4,4.4c-1.7,0.8-3.9,0.4-4.6-1.4c-0.6-1.4-0.2-3.2,0.7-4.6c0.1-0.2,0.3-0.5,0.5-0.7c1.1-1.3,0.5-3.2-1.1-3.7
				c-2.8-0.9-5.8-1.1-8.5-0.5c-1.7,3.8-3.9,7.5-6.5,10.7c0.7,1.2,1.7,2.4,2.7,3.4s2.7,0.6,3.3-0.6c0.1-0.2,0.2-0.3,0.2-0.5
				c0.6-1.1,1.4-2.2,2.5-2.7c1.6-0.7,3.2,0.4,3.6,1.9s-0.1,3.3-0.9,4.9c-1.1,2.4-2.8,4.6-4.8,6.4c-1.4,1.2-3,2.3-4.6,2.4
				s-3.3-0.8-3.3-2.5c-0.1-1.3,0.8-2.7,1.9-3.6c0.2-0.1,0.4-0.3,0.6-0.4c1.2-0.7,1.3-2.5,0.2-3.4c-1.2-0.9-2.6-1.7-4-2.2
				c-2.6,2.9-5.5,5.5-8.6,7.8c-0.4,3.7,0.5,7.5,2.3,10.9c0.9,1.8,3.3,2.2,4.8,0.8c0.2-0.2,0.4-0.3,0.6-0.5c1.3-1.2,2.9-2.3,4.6-2.4
				c2.5-0.1,4.1,2.1,3.9,4.3c-0.2,2.3-1.8,4.4-3.6,6.2c-2.7,2.7-6,4.9-9.5,6.3c-2.4,1-5.1,1.6-7.4,1c-2.3-0.6-4-2.8-3.3-5
				c0.6-1.8,2.4-3.2,4.3-3.9c0.3-0.1,0.6-0.2,1-0.3c2-0.4,3-2.7,1.9-4.4c-2.1-3.4-5-6.1-8.5-7.7c-1.2,0.6-2.5,1.1-3.8,1.6
				c-2.8,1-5.6,1.8-8.4,2.3c-0.2,1.5-0.3,3.1-0.1,4.7s1.9,2.5,3.3,1.8c0.2-0.1,0.4-0.2,0.5-0.2c1.3-0.5,2.8-0.9,4.1-0.5
				c1.9,0.6,2.5,2.6,1.8,4.3c-0.8,1.6-2.5,2.8-4.3,3.6c-2.7,1.3-5.8,2-8.7,2.1c-2.1,0.1-4.2-0.2-5.8-1.3c-1.5-1.1-2.2-3.1-1.1-4.6
				c0.9-1.2,2.7-1.7,4.3-1.7c0.3,0,0.5,0,0.8,0.1c1.6,0.3,3-1.2,2.6-2.8c-0.4-1.7-1-3.3-1.8-4.8c-3.6,0.4-7.3,0.4-10.7,0
				c-3,3.8-5.4,10.8-6.3,14.6c-0.5,2,1.1,3.8,3.2,3.6c0.3,0,0.5,0,0.8,0c1.8,0,3.7,0.1,5.1,1.1c2,1.5,1.8,4.2,0.2,5.8
				c-1.6,1.6-4.2,2.2-6.7,2.5c-3.8,0.3-7.7-0.1-11.3-1.4c-2.5-0.8-5-2.1-6.3-4c-1.4-1.9-1.3-4.7,0.7-6c1.6-1,3.9-0.9,5.8-0.2
				c0.3,0.1,0.6,0.3,0.9,0.4c1.8,1,4.1-0.1,4.3-2.2c0.5-4.2,0.7-12-1.1-16.6c-2.9-0.9-5.8-2.1-8.4-3.5c-1.3,1-2.4,2.3-3.3,3.7
				c-0.8,1.3-0.2,2.9,1.3,3.3c0.2,0,0.4,0.1,0.5,0.2c1.2,0.4,2.6,1,3.2,2.1c1,1.5,0.2,3.4-1.3,4.1c-1.5,0.7-3.5,0.5-5.3,0
				c-2.7-0.7-5.3-2.1-7.6-3.8c-1.5-1.2-2.9-2.7-3.4-4.4s0.3-3.6,2-4c1.3-0.3,2.9,0.4,4.1,1.3c0.2,0.2,0.4,0.3,0.5,0.5
				c1,1.2,2.9,0.9,3.6-0.4c0.8-1.6,1.4-3.2,1.7-4.9c-3.6-2.3-7-5-9.9-8c-2.8,0.3-5.4,1.5-7.7,3.2c-1.3,1-1.3,2.9,0.1,3.8
				c0.2,0.1,0.3,0.2,0.5,0.4c1.1,0.9,2.2,2,2.5,3.3c0.5,1.9-1,3.5-2.8,3.7s-3.7-0.8-5.4-2c-2.5-1.7-4.7-4.1-6.3-6.7
				c-1.1-1.8-2-3.8-1.8-5.7s1.6-3.5,3.5-3.3c1.5,0.2,2.8,1.4,3.6,2.9c0.1,0.2,0.2,0.5,0.3,0.7c0.6,1.5,2.5,2,3.8,0.9
				c2.2-2,3.9-4.4,4.7-7.2c-2.5-3.5-4.7-7.3-6.3-11.4c-1.1,0.1-2.1,0.3-3.2,0.6c-1.2,0.4-1.7,1.7-0.9,2.8c0.1,0.1,0.2,0.3,0.2,0.4
				c0.6,0.9,1.1,2,0.9,3c-0.2,1.5-1.7,2.2-3,1.9c-1.3-0.4-2.4-1.5-3.3-2.8c-1.3-1.9-2.3-4.1-2.7-6.4c-0.3-1.6-0.4-3.2,0.2-4.5
				c0.6-1.3,2.1-2.1,3.3-1.4c1,0.5,1.6,1.8,1.9,3c0,0.2,0,0.4,0,0.6c0,1.2,1.3,2.1,2.4,1.6c1.1-0.4,2.1-1,3-1.7
				c-1.2-3.5-2-7-2.4-10.5c-3.7-2.8-8.2-4.3-13-4.5c-2.4-0.1-4.2,2.1-3.6,4.5c0.1,0.3,0.1,0.6,0.2,0.9c0.4,2.1,0.6,4.4-0.3,6.2
				c-1.3,2.6-4.6,3-6.8,1.5s-3.5-4.5-4.3-7.4c-1.2-4.4-1.4-9-0.8-13.5c0.5-3.1,1.4-6.2,3.4-8.1s5.2-2.5,7.1-0.4
				c1.5,1.6,1.8,4.4,1.4,6.7c-0.1,0.4-0.2,0.8-0.3,1.2c-0.8,2.3,1,4.7,3.4,4.6c4.9-0.2,9.6-1.7,13.4-4.6c0.4-3.1,1-6.2,1.9-9
				c-1.4-1.3-3.1-2.3-4.9-3.1c-1.5-0.6-3.2,0.4-3.3,2c0,0.2,0,0.4-0.1,0.6c-0.2,1.4-0.6,2.9-1.6,3.9c-1.4,1.4-3.6,0.9-4.6-0.6
				c-1-1.5-1.2-3.6-1-5.6c0.3-3,1.2-6.1,2.6-8.7c1-1.8,2.3-3.6,4-4.4c1.7-0.8,3.9-0.4,4.6,1.4c0.6,1.4,0.2,3.2-0.7,4.6
				c-0.1,0.2-0.3,0.5-0.5,0.7c-1.1,1.3-0.5,3.2,1.1,3.7c2,0.6,4,0.9,6,0.8c1.4-3.4,3.2-6.7,5.3-9.7c-0.9-3.6-3.1-6.9-5.9-9.4
				c-1.5-1.4-3.9-0.9-4.7,0.9c-0.1,0.2-0.2,0.5-0.3,0.7c-0.9,1.6-2,3.2-3.5,3.8c-2.3,1-4.6-0.5-5.2-2.7c-0.6-2.2,0.2-4.8,1.2-7.1
				c1.6-3.4,4-6.6,6.9-9.1c2-1.7,4.3-3.2,6.6-3.5c2.4-0.2,4.7,1.2,4.8,3.6c0.1,1.9-1.2,3.8-2.7,5.1c-0.3,0.2-0.5,0.4-0.8,0.6
				c-1.8,1-1.9,3.6-0.3,4.8c3.2,2.4,6.8,4,10.6,4.3c2.6-2.5,5.5-4.9,8.5-6.9c-0.3-1.6-0.8-3.2-1.6-4.7c-0.7-1.3-2.4-1.6-3.5-0.6
				c-0.1,0.1-0.3,0.3-0.4,0.4c-1,0.9-2.2,1.7-3.4,1.8c-1.8,0.1-3-1.5-2.9-3.2s1.3-3.3,2.6-4.6c2-2,4.4-3.6,7.1-4.6
				c1.8-0.7,3.8-1.2,5.5-0.7c1.7,0.4,3,2,2.4,3.7c-0.4,1.3-1.8,2.4-3.2,2.9c-0.2,0.1-0.5,0.1-0.7,0.2c-1.5,0.3-2.2,2-1.4,3.3
				c1,1.5,2.1,2.8,3.4,3.9c2.1-1.1,4.4-2.1,6.7-3c1-0.4,2.1-0.7,3.1-1c2-3.9,2.5-8.2,2-12.6c-0.3-2.3-2.6-3.6-4.7-2.6
				c-0.3,0.1-0.5,0.2-0.8,0.3c-1.8,0.7-4,1.3-5.8,0.7c-2.6-0.8-3.5-3.7-2.5-6c1.1-2.3,3.6-4,6.1-5.1
				C182.8,125.2,187.1,124.2,191.4,124z"/>
			<g>
				<g>
					<path class="st22" d="M237.5,199.6c-1.8,0.3-3.1,2.4-4.3,5c-0.6,1.3-1.2,2.8-1.7,4.4c-0.6,1.6-1.2,3.3-1.8,5
						c-0.6,1.8-1.3,3.4-1.8,5c-0.6,1.6-1,3.1-1.4,4.5c-0.7,2.8-1.1,5.1,0.2,6.6c1.2,1.4,3.9,1.4,7.1-0.5c1.6-0.9,3.3-2.4,4.8-4.3
						c1.5-1.9,2.9-4.2,3.8-6.8c0.9-2.6,1.4-5.3,1.4-7.7s-0.4-4.6-1-6.3C241.4,200.9,239.3,199.2,237.5,199.6z"/>
				</g>
				<g>
					<path class="st22" d="M195.8,241.8c0,1.4,1.6,2.7,4.3,3.3s6.4,0.5,10.1-0.8c3.8-1.3,6.9-3.5,8.5-5.6c1.8-2.1,2.2-4.1,1.4-5.2
						c-0.8-1.2-2.7-1.4-5.1-1.1c-2.4,0.3-5.2,1.1-8.2,2.1c-3,1-5.8,2.2-7.8,3.4C197.2,239,195.8,240.3,195.8,241.8z"/>
				</g>
				<g>
					<path class="st22" d="M162,211.6c-1.3,0.3-2.2,1.9-2.3,4.4s0.6,5.9,2.5,9c1.8,3.2,4.3,5.6,6.5,6.8s4.1,1.3,5,0.4
						c0.9-0.9,0.8-2.7,0.2-4.8c-0.7-2.1-1.8-4.5-3.3-7.1c-1.4-2.6-2.9-4.9-4.4-6.5C164.6,212.3,163.2,211.3,162,211.6z"/>
				</g>
				<g>
					
						<ellipse transform="matrix(0.2864 -0.9581 0.9581 0.2864 -49.2746 317.285)" class="st22" cx="188.4" cy="191.7" rx="19.3" ry="7.7"/>
				</g>
				<g>
					<path class="st22" d="M216.2,205.7c-1.2-1.2-3.4-1.2-6.1-0.4c-2.7,0.8-5.9,2.3-9.1,4.2s-6.2,3.9-8.1,5.9
						c-2,1.9-3.2,3.8-2.7,5.4s2.6,2.5,5.7,2.5c3.1,0,7.2-1.1,11.1-3.4c4-2.3,6.9-5.3,8.4-7.9C217.2,209.2,217.4,206.9,216.2,205.7z"
						/>
				</g>
				<g>
					<path class="st22" d="M179.6,226.3c-0.5,0.6-0.3,1.6,0.6,2.8c0.9,1.2,2.5,2.4,4.5,3.1c2.1,0.7,4.1,0.7,5.5,0.3s2.2-1.1,2.1-1.9
						c0-0.8-0.8-1.4-1.9-1.9c-1.1-0.6-2.5-1.1-4-1.6s-3-0.9-4.2-1.2C181.1,225.8,180.1,225.8,179.6,226.3z"/>
				</g>
				<g>
					<path class="st22" d="M222.2,215.1c-1.3-0.6-3.5,1.3-5.5,4.1c-1.9,2.8-3.1,5.5-2,6.5c1,1,4-0.4,6.2-3.6
						C223.1,219.1,223.5,215.7,222.2,215.1z"/>
				</g>
				<g>
					<path class="st22" d="M216.5,176c-1.1,0.9-1.1,2.9-0.6,5.2c0.5,2.3,1.6,5.1,2.9,7.9c1.3,2.9,2.7,5.5,4.1,7.5
						c1.4,1.9,2.9,3.1,4.3,2.9c1.4-0.2,2.5-1.9,2.9-4.6c0.4-2.7-0.1-6.4-1.8-10c-1.7-3.7-4.1-6.5-6.4-7.9
						C219.6,175.3,217.6,175,216.5,176z"/>
				</g>
				<g>
					<path class="st22" d="M230.6,173.5c-0.6,0.5-0.5,1.6-0.2,2.8s0.9,2.6,1.7,4.2c0.7,1.5,1.5,2.9,2.2,3.9c0.8,1,1.5,1.7,2.3,1.6
						c0.7-0.1,1.3-1,1.5-2.5s-0.1-3.5-1.1-5.4c-1-2-2.3-3.4-3.6-4.2C232.3,173.1,231.2,173,230.6,173.5z"/>
				</g>
				<g>
					<path class="st22" d="M195.3,163.8c0.3,1.3,1.8,2.1,3.7,2.7c1.9,0.6,4.4,1.2,7,1.7s5.1,1,7.1,1.2c2,0.2,3.7,0,4.5-1
						s0.4-2.8-1.3-4.7c-0.8-1-2-1.9-3.4-2.7c-1.4-0.8-3.1-1.4-5-1.8c-1.9-0.4-3.7-0.4-5.3-0.3c-1.6,0.2-3.1,0.6-4.2,1.1
						C196,161.1,195,162.5,195.3,163.8z"/>
				</g>
				<g>
					<path class="st22" d="M166.3,182.1c1,0.4,2.2-0.2,3.5-1.2c1.3-1,2.7-2.3,4.3-3.8c1.5-1.5,2.9-2.9,4-4.2c1-1.3,1.7-2.4,1.3-3.4
						c-0.3-0.9-1.7-1.5-3.7-1.2c-2,0.2-4.6,1.4-6.7,3.5c-2.2,2.1-3.4,4.6-3.7,6.6C164.9,180.4,165.4,181.7,166.3,182.1z"/>
				</g>
				<g>
					<path class="st22" d="M163.1,192c-0.7-0.4-1.7,0-2.7,1.1s-1.9,2.8-2.4,4.9c-0.4,2.1-0.3,4.1,0.3,5.5c0.5,1.4,1.3,2.1,2,2
						c0.8-0.1,1.4-0.9,1.9-2c0.5-1.2,0.9-2.7,1.3-4.4c0.3-1.7,0.6-3.2,0.6-4.5C164,193.3,163.8,192.3,163.1,192z"/>
				</g>
				<g>
					<path class="st22" d="M203.5,177.4c-2.3,0.6-2.9,6-0.8,11.8c2.1,5.9,6,9.6,8.1,8.6c2.2-1,1.9-6.1,0-11.5
						C208.9,180.8,205.8,176.8,203.5,177.4z"/>
				</g>
				<g>
					<path class="st22" d="M173.1,190.7c-1.1-0.4-2.5,0.3-3.8,2.2c-1.3,1.8-2.3,4.8-2.2,8.1c0,3.4,1.1,6.3,2.4,8
						c1.3,1.8,2.8,2.5,3.9,2.1c1.1-0.5,1.6-1.9,1.8-3.7s0.3-4.1,0.2-6.6c0-2.5-0.1-4.7-0.4-6.6C174.7,192.6,174.2,191.2,173.1,190.7
						z"/>
				</g>
				<g>
					<path class="st22" d="M175.5,237.6c-0.6,0.8-0.3,2.2,0.8,3.6c1.1,1.4,2.9,2.9,5.3,3.9c2.4,1,4.7,1.4,6.5,1.2s2.9-0.9,3.2-1.9
						c0.2-1-0.5-2.1-1.7-3.1s-3-2.1-5-2.9c-2-0.9-3.9-1.5-5.6-1.7C177.4,236.6,176.1,236.8,175.5,237.6z"/>
				</g>
			</g>
			<g class="st24">
				<path class="st25" d="M177.1,233.8c-0.5,2.5,0.4,5.2,2.9,7.7s6.7,4.8,12.1,5.9c2.8,0.6,5.9,0.8,9.1,0.7
					c3.3-0.2,6.9-0.7,10.5-1.8c7.3-2.1,14.9-6.4,21.4-12.9c6.4-6.6,10.4-14.3,12.4-21.7c1-3.7,1.5-7.3,1.6-10.5
					c0.1-3.4-0.2-6.5-0.9-9.1c-1.2-5.5-3.5-9.6-6.1-12c-2.6-2.5-5.3-3.3-7.8-2.7c-2.5,0.5-4.6,2.3-6.6,4.6c-1.9,2.3-3.8,5.1-5.7,7.9
					c-3.8,5.9-8.2,12.3-13.5,17.7c-5.3,5.4-11.6,9.9-17.4,13.9c-2.9,2-5.7,3.9-7.9,5.9C179.2,229.1,177.5,231.2,177.1,233.8z"/>
			</g>
		</g>
		<g>
			<path class="st21" d="M33.2,77.7c0.7-2.2,1.8-4.4,3.6-5.6c1.7-1.2,4.1-1.1,5.3,0.7c0.9,1.4,0.8,3.4,0.2,5.1
				c-0.1,0.3-0.2,0.5-0.4,0.8c-0.9,1.6,0.1,3.6,1.9,3.8c3.6,0.5,7.2,0,10.3-1.5c0.6-2,1.3-3.9,2.2-5.8c-0.9-2.1-2.4-3.8-4.3-5.1
				c-1-0.6-2.2-0.1-2.5,1c0,0.1-0.1,0.3-0.1,0.4c-0.3,0.9-0.8,1.9-1.6,2.5c-1.2,0.8-2.6,0.2-3.1-1s-0.4-2.7,0-4
				c0.6-2.1,1.6-4.1,2.9-5.8c0.9-1.2,2.1-2.2,3.4-2.6s2.7,0.2,3,1.5c0.2,1-0.3,2.2-1,3.1c-0.1,0.1-0.3,0.3-0.4,0.4
				c-0.9,0.7-0.7,2.2,0.3,2.7c2.1,1.1,4.4,1.6,6.6,1.3c1.5-2.3,3.3-4.5,5.2-6.4c-0.2-3-1.4-5.8-3.3-8.1c-1-1.3-2.9-1.3-3.8,0.1
				c-0.1,0.2-0.2,0.3-0.4,0.5c-0.9,1.1-2,2.2-3.3,2.5c-1.9,0.5-3.5-1-3.6-2.8c-0.2-1.8,0.8-3.7,1.9-5.3c1.7-2.5,4-4.6,6.6-6.2
				c1.8-1.1,3.8-1.9,5.7-1.8c1.9,0.2,3.5,1.6,3.2,3.5c-0.2,1.5-1.4,2.8-2.8,3.6c-0.2,0.1-0.5,0.2-0.7,0.3c-1.5,0.6-2,2.5-0.9,3.7
				c2.1,2.3,4.8,4.1,7.7,4.8c2.2-1.5,4.5-2.8,7-3.9c0.6-1.8,0.5-3.8-0.1-5.6c-0.3-0.9-1.4-1.3-2.2-0.8c-0.1,0.1-0.2,0.1-0.3,0.2
				c-0.7,0.4-1.6,0.8-2.4,0.7c-1.2-0.1-1.8-1.3-1.5-2.4c0.3-1,1.2-1.9,2.2-2.6c1.5-1,3.2-1.8,5-2.2c1.2-0.3,2.6-0.3,3.6,0.2
				c1,0.5,1.7,1.6,1.1,2.6c-0.4,0.8-1.4,1.3-2.4,1.5c-0.2,0-0.3,0-0.5,0c-1,0-1.7,1-1.3,1.9c0.8,1.8,2,3.5,3.6,4.5
				c2.6-0.8,5.2-1.3,7.9-1.5c1.7-2.4,2.6-5.3,2.8-8.3c0.1-1.6-1.4-2.8-3-2.4C90,40,89.8,40,89.6,40c-1.4,0.3-2.9,0.4-4.1-0.2
				c-1.7-0.9-2-3-1-4.5s3-2.3,4.9-2.8c2.9-0.8,6-0.9,9-0.5c2.1,0.3,4.1,0.9,5.5,2.3c1.3,1.3,1.6,3.5,0.2,4.7c-1.1,1-2.9,1.2-4.5,0.9
				c-0.3,0-0.5-0.1-0.8-0.2c-1.5-0.6-3.2,0.6-3.1,2.3c0.1,3.1,1,6.2,2.8,8.6c3.1,0.3,6.2,0.9,9,1.9c0.5-0.7,0.9-1.4,1.3-2.2
				c0.4-0.9-0.2-1.9-1.2-2c-0.1,0-0.2,0-0.4,0c-0.8-0.1-1.7-0.4-2.3-1c-0.8-0.9-0.5-2.1,0.4-2.8c0.9-0.6,2.2-0.7,3.4-0.6
				c1.8,0.2,3.6,0.7,5.3,1.6c1.1,0.6,2.2,1.4,2.6,2.4c0.5,1,0.2,2.3-0.8,2.7c-0.8,0.3-1.9,0.1-2.7-0.4c-0.1-0.1-0.3-0.2-0.4-0.3
				c-0.8-0.6-1.9-0.3-2.2,0.7c-0.3,0.9-0.4,1.8-0.5,2.6c3.4,1.3,6.5,3.1,9.3,5.2c2.1-0.6,4-1.9,5.6-3.6c0.9-0.9,0.6-2.4-0.6-3
				c-0.1-0.1-0.3-0.1-0.4-0.2c-1-0.5-2-1.2-2.4-2.2c-0.6-1.4,0.3-2.9,1.7-3.3c1.4-0.4,3,0.1,4.5,0.8c2.2,1,4.2,2.5,5.8,4.4
				c1.1,1.2,2.1,2.7,2.2,4.2c0.1,1.5-0.8,3-2.3,3c-1.2,0-2.4-0.7-3.2-1.7c-0.1-0.2-0.3-0.3-0.4-0.5c-0.7-1.1-2.3-1.2-3.1-0.2
				c-1.4,1.9-2.4,4-2.7,6.3c2.4,2.3,4.5,4.9,6.3,7.7c1.1-0.2,2.2-0.6,3.3-1.1c1-0.5,1.2-1.8,0.4-2.6c-0.1-0.1-0.2-0.2-0.3-0.3
				c-0.6-0.7-1.3-1.6-1.3-2.5c-0.1-1.4,1.1-2.3,2.4-2.2c1.2,0.1,2.4,1,3.4,2c1.5,1.5,2.7,3.3,3.4,5.3c0.5,1.3,0.9,2.8,0.5,4.1
				c-0.3,1.3-1.5,2.2-2.8,1.8c-1-0.3-1.7-1.3-2.1-2.4c-0.1-0.2-0.1-0.4-0.1-0.5c-0.2-1.1-1.5-1.7-2.4-1.1c-1,0.7-2,1.5-2.7,2.4
				c1.4,2.7,2.6,5.6,3.4,8.5c2.7,1.3,5.7,1.7,8.6,1.3c1.6-0.2,2.5-1.9,1.9-3.3c-0.1-0.2-0.2-0.4-0.2-0.5c-0.5-1.3-0.9-2.8-0.5-4.1
				c0.6-1.9,2.6-2.5,4.3-1.7c1.6,0.8,2.8,2.5,3.6,4.3c1.3,2.7,2,5.8,2.1,8.7c0.1,2.1-0.2,4.2-1.3,5.8c-1.1,1.5-3.1,2.2-4.6,1.1
				c-1.2-0.9-1.7-2.7-1.7-4.3c0-0.3,0-0.5,0.1-0.8c0.3-1.6-1.2-3-2.8-2.6c-3.1,0.7-5.9,2.1-8,4.3c0.1,1.1,0.1,2.2,0.1,3.3
				c0,2.4-0.2,4.7-0.6,6.9c1.1,0.6,2.3,1,3.5,1.3s2.4-0.7,2.3-2c0-0.2,0-0.3,0-0.5c0-1.1,0.1-2.3,0.7-3.2c0.9-1.2,2.6-1.1,3.6-0.1
				c1,1,1.4,2.6,1.5,4.2c0.2,2.4-0.1,4.8-0.9,7.1c-0.5,1.6-1.3,3.1-2.5,4s-2.9,0.8-3.7-0.5c-0.6-1-0.6-2.4-0.1-3.6
				c0.1-0.2,0.2-0.4,0.3-0.6c0.6-1.1-0.1-2.5-1.4-2.7c-1.4-0.2-2.8-0.2-4.1,0c-0.7,2.8-1.7,5.5-2.9,7.9c2,3.3,6.6,7,9.1,8.6
				c1.4,0.9,3.1,0.2,3.6-1.4c0.1-0.2,0.1-0.4,0.2-0.6c0.5-1.3,1.1-2.7,2.2-3.5c1.6-1.1,3.6-0.2,4.4,1.4c0.8,1.6,0.5,3.7,0,5.7
				c-0.8,2.9-2.2,5.7-4.1,8c-1.3,1.6-2.9,3.1-4.7,3.6s-3.8-0.3-4.2-2.2c-0.3-1.4,0.4-3.1,1.4-4.4c0.2-0.2,0.4-0.4,0.6-0.6
				c1.2-1.1,1-3.1-0.4-3.8c-2.9-1.5-8.7-3.8-12.6-3.7c-1.5,1.9-3.1,3.7-4.9,5.4c0.4,1.2,1.1,2.4,1.9,3.5c0.7,1,2.1,0.9,2.8,0
				c0.1-0.1,0.2-0.2,0.3-0.4c0.7-0.8,1.5-1.6,2.4-1.8c1.4-0.3,2.6,0.8,2.7,2.1c0.1,1.3-0.6,2.7-1.4,3.9c-1.3,1.8-3,3.4-4.9,4.6
				c-1.3,0.8-2.8,1.4-4.2,1.3c-1.4-0.1-2.6-1.2-2.4-2.6c0.1-1.1,1.1-2.1,2.1-2.7c0.2-0.1,0.4-0.2,0.5-0.2c1.1-0.4,1.5-1.9,0.7-2.8
				c-0.9-1-2-1.9-3.2-2.6c-2.7,2.1-5.6,3.9-8.7,5.3c-0.5,2.1-0.3,4.4,0.3,6.6c0.4,1.2,1.8,1.7,2.9,1c0.1-0.1,0.3-0.2,0.4-0.3
				c1-0.6,2.1-1.1,3.1-1c1.5,0.2,2.3,1.7,2,3.1c-0.4,1.4-1.6,2.5-2.9,3.5c-2,1.4-4.3,2.4-6.6,2.8c-1.6,0.3-3.4,0.4-4.7-0.2
				c-1.4-0.6-2.2-2.1-1.5-3.5c0.5-1,1.8-1.7,3.1-1.9c0.2,0,0.4,0,0.6,0c1.3,0,2.2-1.3,1.7-2.5c-0.9-2.2-2.3-4.1-4.1-5.4
				c-3.3,0.9-6.7,1.5-10.1,1.6c-0.2,0.8-0.4,1.6-0.4,2.5c-0.1,1,0.8,1.7,1.8,1.5c0.1,0,0.2-0.1,0.4-0.1c0.8-0.2,1.8-0.2,2.5,0.1
				c1.1,0.5,1.2,1.8,0.6,2.7s-1.8,1.4-3,1.7c-1.8,0.5-3.7,0.6-5.5,0.3c-1.2-0.2-2.5-0.6-3.3-1.4c-0.8-0.8-1-2.1-0.1-2.9
				c0.7-0.6,1.8-0.7,2.7-0.6c0.2,0,0.3,0.1,0.5,0.1c0.9,0.3,1.9-0.4,1.9-1.4c0-0.9-0.2-1.8-0.4-2.7c-2.9-0.1-5.8-0.4-8.4-1.1
				c-3.1,2-5.4,5-6.9,8.4c-0.8,1.8,0.4,3.7,2.3,3.9c0.2,0,0.5,0.1,0.7,0.1c1.6,0.3,3.4,0.7,4.5,1.9c1.6,1.7,1,4.2-0.7,5.4
				c-1.7,1.2-4.2,1.4-6.6,1.2c-3.6-0.3-7.1-1.4-10.2-3.1c-2.2-1.2-4.2-2.7-5.2-4.8c-1-2-0.4-4.5,1.7-5.4c1.6-0.7,3.7-0.2,5.4,0.8
				c0.3,0.2,0.5,0.3,0.8,0.6c1.5,1.2,3.8,0.6,4.4-1.3c1.2-3.7,1.4-7.6,0.3-11.2c-2.2-1.1-4.3-2.4-6.3-3.9c-1.3,0.7-2.6,1.6-3.6,2.8
				c-0.9,0.9-0.6,2.4,0.6,3c0.1,0.1,0.3,0.1,0.4,0.2c1,0.5,2,1.2,2.4,2.2c0.6,1.4-0.3,2.9-1.7,3.3c-1.4,0.4-3-0.1-4.5-0.8
				c-2.2-1-4.2-2.5-5.8-4.4c-1.1-1.2-2.1-2.7-2.2-4.2s0.8-3,2.3-3c1.2,0,2.4,0.7,3.2,1.7c0.1,0.2,0.3,0.3,0.4,0.5
				c0.7,1.1,2.3,1.2,3.1,0.2c1-1.3,1.8-2.7,2.2-4.2c-2.2-2-4.1-4.2-5.8-6.6c-3-0.3-5.9,0.4-8.6,1.8c-1.4,0.7-1.7,2.6-0.6,3.8
				c0.1,0.1,0.3,0.3,0.4,0.4c0.9,1.1,1.8,2.3,1.9,3.7c0.1,2-1.6,3.3-3.4,3.1s-3.5-1.4-4.9-2.8c-2.1-2.1-3.8-4.8-5-7.6
				c-0.8-1.9-1.3-4.1-0.8-5.9c0.5-1.8,2.2-3.2,4-2.6c1.4,0.4,2.5,1.9,3.1,3.4c0.1,0.2,0.2,0.5,0.2,0.8c0.3,1.6,2.1,2.4,3.5,1.5
				c2.7-1.7,4.8-4,6.1-6.8c-1.2-2.6-2.1-5.4-2.8-8.1c-1.3-0.2-2.6-0.3-3.9-0.1c-1.2,0.1-1.9,1.4-1.4,2.5c0.1,0.1,0.1,0.3,0.2,0.4
				c0.4,1,0.7,2.1,0.4,3c-0.4,1.4-2,1.9-3.2,1.3s-2.1-1.9-2.7-3.2c-0.9-2-1.5-4.3-1.5-6.5c0-1.5,0.2-3.1,0.9-4.3
				c0.8-1.1,2.3-1.6,3.4-0.8c0.9,0.7,1.3,2,1.3,3.1c0,0.2,0,0.4-0.1,0.6c-0.2,1.2,0.9,2.2,2.1,1.9c1.4-0.3,2.7-0.8,3.8-1.5
				c-0.3-1.9-0.4-3.8-0.4-5.8c0-0.9,0-1.7,0.1-2.6c-2.4-2.5-5.5-4.1-8.8-4.9c-1.8-0.4-3.4,1-3.2,2.8c0,0.2,0,0.4,0,0.7
				c0,1.6-0.1,3.3-1,4.5c-1.3,1.8-3.7,1.6-5.1,0.2c-1.4-1.4-2-3.7-2.2-6C31.7,84.3,32.1,80.9,33.2,77.7z"/>
			<g>
				<g>
					<path class="st22" d="M101.7,63.9c-0.2,1.5,0.9,3,2.5,4.5c0.8,0.8,1.8,1.6,2.8,2.5s2.1,1.8,3.3,2.7c1.1,1,2.2,1.9,3.3,2.7
						c1,0.9,2,1.6,2.9,2.3c1.8,1.3,3.5,2.2,4.9,1.7c1.3-0.5,2.1-2.5,1.6-5.4c-0.3-1.4-0.9-3.1-1.9-4.7s-2.4-3.3-4-4.7
						c-1.7-1.4-3.6-2.4-5.3-3.1c-1.8-0.7-3.5-1-5-1C103.8,61.4,102,62.5,101.7,63.9z"/>
				</g>
				<g>
					<path class="st22" d="M121.8,106.2c1.1,0.3,2.4-0.5,3.6-2.3c1.2-1.8,2.1-4.6,2.2-7.8c0.1-3.2-0.7-6.1-1.8-7.9
						c-1.1-1.9-2.4-2.8-3.5-2.5s-1.8,1.7-2.2,3.5s-0.6,4.2-0.7,6.7c-0.1,2.5,0,4.9,0.4,6.7C120.1,104.5,120.7,105.9,121.8,106.2z"/>
				</g>
				<g>
					<path class="st22" d="M90.2,123.3c-0.1,1,0.8,2.1,2.7,2.9c1.8,0.8,4.5,1.1,7.4,0.6s5.3-1.7,6.8-2.9c1.5-1.3,2.1-2.6,1.6-3.6
						c-0.5-0.9-1.8-1.3-3.5-1.4c-1.7-0.1-3.9,0.1-6.2,0.5c-2.3,0.4-4.4,0.9-6,1.5C91.5,121.4,90.4,122.2,90.2,123.3z"/>
				</g>
				<g>
					
						<ellipse transform="matrix(0.5976 -0.8018 0.8018 0.5976 -45.5626 105.7821)" class="st22" cx="82.6" cy="98.3" rx="6.1" ry="15.2"/>
				</g>
				<g>
					<path class="st22" d="M100.5,81.4c-1.2,0.5-1.8,2.2-1.9,4.4c-0.1,2.2,0.1,5,0.6,7.9c0.5,3,1.2,5.7,2.1,7.7s2,3.4,3.3,3.5
						s2.6-1.2,3.4-3.6c0.8-2.3,1.1-5.7,0.5-9.2c-0.6-3.6-2.1-6.6-3.7-8.4C103.4,81.6,101.7,80.9,100.5,81.4z"/>
				</g>
				<g>
					<path class="st22" d="M105.9,114.2c0.3,0.5,1.1,0.7,2.2,0.3c1.1-0.3,2.5-1.2,3.5-2.5c1.1-1.3,1.6-2.8,1.7-4
						c0.1-1.2-0.3-1.9-0.8-2.1c-0.6-0.2-1.2,0.2-2,0.9c-0.7,0.6-1.5,1.5-2.3,2.5s-1.5,1.9-2,2.8
						C105.9,112.9,105.6,113.7,105.9,114.2z"/>
				</g>
				<g>
					<path class="st22" d="M109.2,79.5c-0.8,0.8,0,3,1.5,5.2s3.3,3.8,4.3,3.3s0.8-3.1-0.9-5.6C112.3,79.9,110,78.8,109.2,79.5z"/>
				</g>
				<g>
					<path class="st22" d="M78.5,73c0.4,1.1,1.8,1.6,3.7,1.9c1.9,0.2,4.2,0.2,6.7,0c2.5-0.2,4.8-0.5,6.7-1c1.8-0.5,3.1-1.3,3.4-2.4
						c0.2-1.1-0.7-2.4-2.6-3.4s-4.8-1.6-7.9-1.4c-3.2,0.2-5.9,1.3-7.7,2.6C78.9,70.6,78.1,72,78.5,73z"/>
				</g>
				<g>
					<path class="st22" d="M80.6,61.9c0.3,0.6,1,0.8,2,0.9c1,0.1,2.2,0,3.6-0.1c1.3-0.1,2.5-0.3,3.5-0.6c0.9-0.3,1.6-0.7,1.8-1.3
						c0.1-0.6-0.4-1.3-1.4-1.8s-2.6-0.8-4.3-0.7c-1.7,0.2-3.2,0.8-4.1,1.5C80.7,60.6,80.3,61.4,80.6,61.9z"/>
				</g>
				<g>
					<path class="st22" d="M63.8,85.5c1,0.1,2-0.8,3-2c1-1.3,2-2.9,3.1-4.7c1.1-1.8,2.1-3.5,2.8-5c0.7-1.5,1-2.7,0.5-3.6
						c-0.5-0.8-2-1-3.9-0.3c-0.9,0.4-1.9,1-2.9,1.8c-1,0.9-1.9,1.9-2.7,3.2c-0.8,1.3-1.3,2.6-1.6,3.9c-0.3,1.3-0.4,2.4-0.3,3.4
						C61.9,84.2,62.8,85.4,63.8,85.5z"/>
				</g>
				<g>
					<path class="st22" d="M69.4,112.1c0.5-0.6,0.4-1.7,0-2.9c-0.4-1.2-1-2.7-1.7-4.2c-0.7-1.6-1.3-3-2-4.1S64.4,99,63.6,99
						c-0.8,0-1.6,0.8-1.9,2.4c-0.4,1.5-0.2,3.8,0.8,5.9c1,2.2,2.5,3.8,3.9,4.5C67.8,112.7,68.9,112.7,69.4,112.1z"/>
				</g>
				<g>
					<path class="st22" d="M75.9,117c-0.4,0.4-0.4,1.3,0.1,2.3s1.6,2.2,3,3.1s3,1.3,4.1,1.3c1.2,0,1.9-0.4,2.1-1s-0.3-1.3-1-1.9
						c-0.7-0.7-1.7-1.4-2.9-2.1c-1.2-0.7-2.2-1.3-3.2-1.6C77.2,116.7,76.4,116.6,75.9,117z"/>
				</g>
				<g>
					<path class="st22" d="M76,83.1c-0.2,1.9,3.7,3.8,8.5,3.8c4.9,0,8.7-1.8,8.5-3.7c-0.2-1.9-4-3.1-8.5-3.1
						C80.1,80.1,76.2,81.3,76,83.1z"/>
				</g>
				<g>
					<path class="st22" d="M77.7,109.3c-0.6,0.7-0.4,2,0.6,3.4c1,1.5,3,3,5.5,3.9s5,0.9,6.7,0.4s2.7-1.4,2.6-2.3s-1-1.7-2.3-2.4
						c-1.3-0.7-3-1.3-4.8-2c-1.8-0.7-3.5-1.2-5-1.5C79.5,108.7,78.3,108.7,77.7,109.3z"/>
				</g>
				<g>
					<path class="st22" d="M113.2,120.3c0.5,0.6,1.5,0.8,2.9,0.4c1.3-0.4,3-1.4,4.4-2.9s2.3-3.1,2.7-4.5c0.3-1.4,0.1-2.4-0.5-2.9
						c-0.7-0.4-1.7-0.2-2.8,0.4s-2.3,1.7-3.5,2.9c-1.2,1.3-2.2,2.5-2.7,3.7C112.9,118.6,112.7,119.6,113.2,120.3z"/>
				</g>
			</g>
			<g>
				<path class="st23" d="M76.3,118.3c-0.4,2,0.3,4.1,2.3,6.1s5.3,3.8,9.6,4.6c2.2,0.5,4.7,0.6,7.3,0.5c2.6-0.2,5.5-0.6,8.3-1.4
					c5.8-1.7,11.8-5.1,16.9-10.2c5.1-5.2,8.2-11.3,9.8-17.1c0.8-2.9,1.2-5.8,1.3-8.3c0-2.7-0.2-5.1-0.7-7.3c-1-4.4-2.8-7.6-4.8-9.5
					c-2-1.9-4.2-2.6-6.2-2.2s-3.7,1.8-5.2,3.6c-1.5,1.8-3,4-4.5,6.3c-3,4.7-6.6,9.7-10.7,14c-4.2,4.3-9.2,7.9-13.8,11
					c-2.3,1.6-4.5,3.1-6.2,4.7C78,114.6,76.7,116.2,76.3,118.3z"/>
			</g>
		</g>
		<g>
			<path class="st21" d="M242.8,56.3c1.2-0.7,2.7-1.3,4-1.2s2.4,1.2,2.2,2.5c-0.2,1-1,2-2,2.5c-0.2,0.1-0.3,0.2-0.5,0.2
				c-1.1,0.4-1.4,1.7-0.7,2.6c1.5,1.7,3.4,3,5.5,3.5c1.1-0.7,2.2-1.3,3.4-1.9c0.4-1.3,0.4-2.8,0-4.2c-0.2-0.7-1-1-1.6-0.6
				c-0.1,0-0.1,0.1-0.2,0.1c-0.5,0.3-1.2,0.6-1.8,0.5c-0.9-0.1-1.3-1-1.1-1.8c0.2-0.8,0.9-1.4,1.7-1.9c1.1-0.8,2.4-1.3,3.7-1.5
				c0.9-0.2,1.9-0.2,2.6,0.2c0.8,0.4,1.2,1.2,0.8,2c-0.3,0.6-1,0.9-1.8,1.1c-0.1,0-0.2,0-0.4,0c-0.7,0-1.2,0.7-1,1.4
				c0.5,1.4,1.4,2.5,2.6,3.3c1.7-0.5,3.4-0.8,5.1-0.9c1.1-1.5,1.7-3.3,1.8-5.2c0.1-1-0.9-1.8-1.8-1.5c-0.1,0-0.2,0.1-0.4,0.1
				c-0.9,0.2-1.8,0.2-2.6-0.2c-1.1-0.6-1.2-1.9-0.6-2.8c0.7-0.9,1.9-1.4,3.1-1.7c1.8-0.5,3.8-0.5,5.7-0.2c1.3,0.2,2.6,0.6,3.4,1.5
				c0.8,0.8,1,2.2,0.1,3c-0.7,0.6-1.8,0.7-2.8,0.6c-0.2,0-0.3-0.1-0.5-0.1c-1-0.4-2,0.4-1.9,1.4c0.1,2,0.6,3.9,1.7,5.4
				c1.7,0.2,3.3,0.5,4.9,1c1-0.6,1.8-1.6,2.3-2.7c0.2-0.6-0.1-1.2-0.7-1.2c-0.1,0-0.1,0-0.2,0c-0.5-0.1-1.1-0.2-1.4-0.6
				c-0.5-0.5-0.3-1.3,0.3-1.7c0.6-0.4,1.4-0.4,2.1-0.3c1.1,0.1,2.3,0.5,3.3,1c0.7,0.4,1.3,0.9,1.6,1.5c0.3,0.6,0.1,1.4-0.6,1.7
				c-0.5,0.2-1.2,0-1.7-0.3c-0.1-0.1-0.2-0.1-0.2-0.2c-0.5-0.4-1.2-0.2-1.4,0.4c-0.4,1.2-0.5,2.4-0.1,3.6c1.5,0.7,3,1.5,4.4,2.5
				c1.8-0.4,3.4-1.5,4.8-2.8c0.7-0.7,0.5-1.9-0.4-2.3c-0.1-0.1-0.2-0.1-0.3-0.2c-0.8-0.4-1.5-1-1.9-1.8c-0.5-1.1,0.3-2.3,1.4-2.5
				c1.1-0.3,2.4,0.1,3.5,0.7c1.7,0.8,3.2,2,4.5,3.5c0.8,1,1.6,2.1,1.7,3.3c0.1,1.2-0.6,2.3-1.8,2.3c-0.9,0-1.9-0.6-2.5-1.4
				c-0.1-0.1-0.2-0.3-0.3-0.4c-0.5-0.9-1.8-1-2.4-0.2c-1.2,1.5-2,3.3-2.2,5.3c1.4,1.4,2.5,3,3.5,4.6c0.5-0.1,1-0.3,1.5-0.5
				c0.6-0.3,0.7-1,0.2-1.4c-0.1-0.1-0.1-0.1-0.2-0.2c-0.3-0.4-0.7-0.9-0.7-1.4c0-0.7,0.6-1.2,1.3-1.2c0.7,0.1,1.3,0.6,1.8,1.1
				c0.8,0.8,1.4,1.8,1.8,2.9c0.3,0.7,0.5,1.5,0.3,2.2s-0.8,1.2-1.5,1c-0.5-0.2-0.9-0.7-1.1-1.3c0-0.1-0.1-0.2-0.1-0.3
				c-0.1-0.6-0.8-0.9-1.3-0.6c-0.5,0.3-0.9,0.7-1.3,1c1.1,2,1.8,4.1,2.4,6.3c1.3,0.6,2.7,0.7,4.1,0.6c0.8-0.1,1.3-0.9,0.9-1.7
				c0-0.1-0.1-0.2-0.1-0.3c-0.2-0.7-0.4-1.4-0.2-2.1c0.3-0.9,1.3-1.2,2.1-0.8c0.8,0.4,1.4,1.3,1.8,2.2c0.6,1.4,1,2.9,1,4.4
				c0,1-0.1,2.1-0.7,2.9c-0.5,0.8-1.6,1.1-2.3,0.5c-0.6-0.5-0.8-1.3-0.8-2.1c0-0.1,0-0.3,0-0.4c0.1-0.8-0.6-1.5-1.4-1.3
				c-1.4,0.3-2.8,0.9-3.8,1.9c0.2,2.1,0.1,4.2-0.2,6.2c0.6,0.4,1.3,0.6,2,0.8c0.7,0.2,1.3-0.4,1.3-1.1c0-0.1,0-0.2,0-0.3
				c0-0.6,0.1-1.3,0.4-1.7c0.5-0.7,1.5-0.6,2-0.1c0.5,0.6,0.7,1.5,0.8,2.3c0.1,1.3-0.1,2.7-0.5,3.9c-0.3,0.9-0.7,1.7-1.4,2.2
				s-1.6,0.4-2-0.3c-0.3-0.5-0.3-1.3,0-2c0-0.1,0.1-0.2,0.2-0.3c0.4-0.6,0-1.4-0.7-1.5c-0.8-0.1-1.5-0.1-2.3,0
				c-0.4,1.9-1.1,3.7-1.9,5.5c0.7,1.7,2,3.1,3.6,4.2c0.8,0.6,2,0.1,2.2-0.8c0-0.1,0.1-0.2,0.1-0.4c0.3-0.8,0.7-1.7,1.4-2.2
				c1-0.7,2.3-0.1,2.7,0.9c0.5,1,0.3,2.3-0.1,3.5c-0.5,1.8-1.4,3.6-2.6,5c-0.8,1-1.8,1.9-3,2.2c-1.1,0.3-2.4-0.2-2.6-1.4
				c-0.2-0.9,0.3-2,0.9-2.7c0.1-0.1,0.2-0.2,0.4-0.4c0.8-0.6,0.7-1.9-0.2-2.4c-1.7-0.9-3.7-1.4-5.6-1.3c-0.4,0.5-0.8,1.1-1.3,1.6
				c-1,1.1-2,2.1-3.1,3c0.3,0.7,0.6,1.4,1.1,2.1c0.5,0.6,1.4,0.6,1.9,0c0.1-0.1,0.1-0.2,0.2-0.2c0.4-0.5,1-1.1,1.6-1.2
				c0.9-0.2,1.7,0.5,1.8,1.4s-0.4,1.8-1,2.6c-0.9,1.2-2,2.3-3.3,3c-0.9,0.5-1.9,0.9-2.8,0.8c-0.9-0.1-1.7-0.8-1.6-1.7
				c0.1-0.7,0.7-1.4,1.4-1.8c0.1-0.1,0.2-0.1,0.4-0.2c0.8-0.3,1-1.2,0.5-1.8c-0.6-0.6-1.2-1.2-2-1.6c-1.5,1-3,1.9-4.7,2.6
				c-0.4,2.4,0.3,6,0.8,7.9c0.3,1,1.4,1.4,2.2,0.8c0.1-0.1,0.2-0.1,0.3-0.2c0.8-0.4,1.6-0.8,2.5-0.7c1.2,0.2,1.8,1.4,1.5,2.5
				c-0.3,1.1-1.3,2-2.3,2.7c-1.6,1.1-3.4,1.8-5.2,2.2c-1.3,0.2-2.6,0.3-3.7-0.2c-1.1-0.5-1.7-1.7-1.1-2.8c0.4-0.8,1.5-1.3,2.5-1.5
				c0.2,0,0.3,0,0.5,0c1,0,1.7-1,1.3-2c-0.8-1.9-2.6-5.4-4.5-7c-1.5,0.3-3,0.5-4.5,0.5c-0.3,0.8-0.5,1.6-0.5,2.4
				c-0.1,0.7,0.6,1.3,1.4,1.1c0.1,0,0.2,0,0.3-0.1c0.6-0.1,1.3-0.2,1.9,0.1c0.8,0.4,0.9,1.4,0.4,2.1c-0.5,0.7-1.4,1.1-2.3,1.3
				c-1.3,0.3-2.8,0.4-4.2,0.2c-0.9-0.2-1.9-0.5-2.5-1.1s-0.7-1.6-0.1-2.2c0.5-0.5,1.4-0.6,2.1-0.4c0.1,0,0.2,0.1,0.4,0.1
				c0.7,0.3,1.5-0.3,1.4-1c0-0.9-0.2-1.7-0.5-2.5c-2.1-0.1-4.2-0.5-6.3-1.1c-1.1,0.8-2,2-2.5,3.2c-0.3,0.7,0.2,1.6,1,1.6
				c0.1,0,0.2,0,0.3,0c0.7,0.1,1.4,0.3,1.9,0.8c0.7,0.7,0.4,1.8-0.3,2.3c-0.7,0.5-1.8,0.6-2.8,0.4c-1.5-0.2-3-0.6-4.3-1.4
				c-0.9-0.5-1.8-1.2-2.2-2c-0.4-0.9-0.2-1.9,0.7-2.3c0.7-0.3,1.6-0.1,2.3,0.4c0.1,0.1,0.2,0.1,0.3,0.2c0.6,0.5,1.6,0.3,1.8-0.5
				c0.5-1.4,0.6-2.9,0.3-4.2c-1.9-0.9-3.8-2-5.5-3.4c-0.4,0.3-0.9,0.6-1.2,1c-0.4,0.4-0.3,1.2,0.3,1.4c0.1,0,0.1,0.1,0.2,0.1
				c0.5,0.3,0.9,0.6,1.1,1.1c0.3,0.7-0.2,1.4-0.8,1.5c-0.7,0.2-1.4-0.1-2.1-0.4c-1-0.5-2-1.2-2.7-2.1c-0.5-0.6-1-1.3-1-2
				c-0.1-0.7,0.4-1.4,1.1-1.4c0.6,0,1.1,0.4,1.5,0.8c0.1,0.1,0.1,0.2,0.2,0.3c0.3,0.5,1.1,0.6,1.4,0.1c0.4-0.4,0.7-0.9,0.9-1.4
				c-1.4-1.2-2.5-2.6-3.6-4c-2.3-0.3-4.6,0.2-6.8,1.2c-1.1,0.5-1.3,1.9-0.5,2.8c0.1,0.1,0.2,0.2,0.3,0.3c0.7,0.8,1.3,1.7,1.4,2.7
				c0.1,1.4-1.2,2.4-2.6,2.3c-1.3-0.1-2.6-1.1-3.6-2.2c-1.6-1.6-2.8-3.6-3.6-5.7c-0.5-1.4-0.9-3-0.5-4.4c0.4-1.3,1.6-2.3,3-1.9
				c1,0.3,1.8,1.4,2.2,2.6c0.1,0.2,0.1,0.4,0.1,0.6c0.2,1.2,1.6,1.8,2.6,1.2c2.1-1.3,3.8-3.1,4.7-5.2c-0.6-1.4-1-2.9-1.4-4.4
				c-0.9-0.2-1.9-0.3-2.9-0.2c-0.8,0.1-1.3,0.9-0.9,1.7c0,0.1,0.1,0.2,0.1,0.3c0.2,0.7,0.4,1.4,0.2,2.1c-0.3,0.9-1.3,1.2-2.1,0.8
				c-0.8-0.4-1.4-1.3-1.8-2.2c-0.6-1.4-1-2.9-1-4.4c0-1,0.1-2.1,0.7-2.9c0.5-0.8,1.6-1.1,2.3-0.5c0.6,0.5,0.8,1.3,0.8,2.1
				c0,0.1,0,0.3,0,0.4c-0.1,0.8,0.6,1.5,1.4,1.3c1-0.2,1.9-0.6,2.8-1.1c-0.2-1.8-0.2-3.7-0.1-5.5c-1.3-1.3-3-2.2-4.8-2.7
				c-1-0.2-1.9,0.5-1.8,1.5c0,0.1,0,0.2,0,0.4c0,0.9-0.1,1.8-0.6,2.5c-0.7,1-2.1,0.9-2.9,0.1c-0.8-0.8-1.1-2.1-1.2-3.3
				c-0.1-1.9,0.1-3.8,0.8-5.6c0.4-1.2,1.1-2.4,2-3.1c0.9-0.7,2.3-0.6,2.9,0.4c0.5,0.8,0.4,1.9,0.1,2.9c-0.1,0.2-0.1,0.3-0.2,0.5
				c-0.5,0.9,0,2,1,2.2c1.9,0.3,3.9,0.1,5.7-0.7c0.5-1.7,1.2-3.4,2.1-5c-0.5-0.6-1.1-1.2-1.8-1.7c-0.6-0.4-1.4-0.1-1.7,0.6
				c0,0.1-0.1,0.2-0.1,0.3c-0.2,0.6-0.5,1.3-1.1,1.6c-0.8,0.5-1.7,0.1-2-0.7c-0.3-0.8-0.2-1.7,0-2.6c0.4-1.3,1.1-2.6,1.9-3.7
				c0.6-0.7,1.4-1.4,2.2-1.6c0.8-0.2,1.8,0.2,1.9,1c0.1,0.7-0.2,1.4-0.7,2c-0.1,0.1-0.2,0.2-0.3,0.3c-0.6,0.5-0.5,1.4,0.2,1.8
				c0.8,0.4,1.6,0.7,2.4,0.9c0.7-1,1.4-2,2.2-2.9c0.4-0.4,0.7-0.8,1.1-1.2c-0.1-2.1-0.9-4.2-2.2-6c-0.7-0.9-2-0.9-2.7,0
				c-0.1,0.1-0.2,0.2-0.3,0.3c-0.6,0.8-1.4,1.5-2.3,1.7c-1.3,0.3-2.4-0.8-2.5-2c-0.1-1.2,0.6-2.6,1.4-3.7
				C239.5,58.9,241.1,57.4,242.8,56.3z"/>
			<g>
				<g>
					<path class="st22" d="M281,77.8c-0.7,0.6-0.8,1.8-0.7,3.2c0.1,0.7,0.2,1.5,0.3,2.3c0.1,0.8,0.3,1.7,0.4,2.6
						c0.1,0.9,0.3,1.8,0.4,2.6c0.1,0.8,0.3,1.6,0.5,2.3c0.3,1.4,0.8,2.5,1.7,2.8c0.8,0.3,2-0.3,2.9-1.9c0.5-0.8,0.8-1.8,1-3
						s0.2-2.5,0-3.9s-0.7-2.6-1.2-3.7c-0.6-1-1.3-1.9-2-2.5C283,77.5,281.7,77.3,281,77.8z"/>
				</g>
				<g>
					<path class="st22" d="M273.2,106.1c0.4,0.6,1.3,0.8,2.7,0.4c1.3-0.4,2.9-1.3,4.2-2.8s2.1-3.2,2.4-4.5c0.2-1.3,0-2.3-0.7-2.6
						c-0.6-0.3-1.5,0.1-2.5,0.7c-0.9,0.7-2,1.7-3.1,2.9c-1.1,1.2-2,2.3-2.6,3.3C273.1,104.5,272.9,105.4,273.2,106.1z"/>
				</g>
				<g>
					<path class="st22" d="M251.3,101.2c-0.5,0.4-0.5,1.3,0.1,2.5c0.6,1.1,1.7,2.4,3.2,3.3c1.6,1,3.2,1.4,4.4,1.4
						c1.2,0,2.1-0.4,2.2-1c0.2-0.6-0.3-1.4-1.1-2.1c-0.8-0.7-1.9-1.5-3.1-2.3s-2.4-1.4-3.5-1.8C252.6,100.8,251.8,100.7,251.3,101.2
						z"/>
				</g>
				<g>
					<path class="st22" d="M255.9,77c-2,0.5-2.8,5-1.6,10.1c1.1,5.2,3.7,8.9,5.8,8.4c2-0.5,2.8-5,1.6-10.1
						C260.4,80.3,257.9,76.5,255.9,77z"/>
				</g>
				<g>
					<path class="st22" d="M273.3,85.5c-0.8-0.2-1.7,0.3-2.7,1.3s-2,2.4-2.9,4c-1,1.6-1.7,3.2-2.1,4.5c-0.4,1.3-0.4,2.4,0.2,3
						s1.7,0.5,3.1-0.3c1.3-0.8,2.9-2.2,4-4.2c1.2-2,1.7-4,1.7-5.5C274.5,86.8,274.1,85.8,273.3,85.5z"/>
				</g>
				<g>
					<path class="st22" d="M262.4,103.3c-0.1,0.4,0.3,0.8,0.9,1.1c0.7,0.3,1.6,0.4,2.7,0.2c1.1-0.2,1.9-0.7,2.4-1.2
						c0.5-0.5,0.7-1,0.5-1.3s-0.7-0.4-1.3-0.4c-0.6,0-1.3,0.1-2.1,0.3c-0.8,0.1-1.5,0.3-2.1,0.5
						C262.9,102.7,262.5,102.9,262.4,103.3z"/>
				</g>
				<g>
					<path class="st22" d="M278.1,88.2c-0.7,0-1.2,1.4-1.4,3.1c-0.2,1.7,0,3.1,0.7,3.3c0.7,0.2,1.6-1.1,1.8-3S278.8,88.2,278.1,88.2
						z"/>
				</g>
				<g>
					<path class="st22" d="M266.3,72.6c-0.2,0.7,0.2,1.5,1,2.4c0.8,0.9,1.9,1.8,3.2,2.8c1.3,0.9,2.5,1.7,3.6,2.2
						c1.1,0.5,2,0.7,2.6,0.2c0.6-0.4,0.6-1.4,0.1-2.7c-0.5-1.3-1.6-2.7-3.2-3.9c-1.6-1.2-3.3-1.8-4.7-1.9
						C267.4,71.6,266.5,72,266.3,72.6z"/>
				</g>
				<g>
					<path class="st22" d="M271.8,68.2c-0.1,0.4,0.2,0.8,0.6,1.2c0.4,0.4,1,0.9,1.7,1.4c0.7,0.5,1.3,0.9,1.9,1.1
						c0.6,0.3,1.1,0.4,1.4,0.1c0.3-0.2,0.3-0.8,0.1-1.4c-0.3-0.7-0.9-1.5-1.8-2.1c-0.9-0.6-1.8-0.9-2.6-0.9
						C272.4,67.6,271.9,67.8,271.8,68.2z"/>
				</g>
				<g>
					<path class="st22" d="M254.2,72.5c0.4,0.5,1.3,0.5,2.3,0.3c1-0.2,2.2-0.6,3.4-1c1.3-0.4,2.4-0.8,3.3-1.2
						c0.9-0.4,1.6-0.9,1.7-1.5c0.1-0.6-0.5-1.3-1.7-1.7c-0.6-0.2-1.3-0.3-2.1-0.3c-0.8,0-1.7,0.1-2.6,0.4c-0.9,0.3-1.7,0.7-2.4,1.2
						s-1.2,1-1.5,1.5C253.9,71.1,253.8,72.1,254.2,72.5z"/>
				</g>
				<g>
					<path class="st22" d="M246,87.4c0.5-0.1,0.9-0.6,1.2-1.4c0.3-0.7,0.6-1.7,0.9-2.7s0.6-2,0.7-2.7c0.1-0.8,0.1-1.5-0.3-1.8
						s-1.1-0.2-1.9,0.4s-1.6,1.7-2.1,3.1c-0.4,1.4-0.3,2.8,0,3.7C245,87,245.5,87.5,246,87.4z"/>
				</g>
				<g>
					<path class="st22" d="M247,92.4c-0.4,0-0.7,0.4-0.9,1.1c-0.2,0.7-0.2,1.7,0.2,2.7c0.3,1,0.9,1.8,1.4,2.3s1.1,0.6,1.4,0.4
						s0.4-0.7,0.3-1.3c-0.1-0.6-0.3-1.4-0.5-2.2c-0.3-0.8-0.5-1.5-0.8-2.1C247.7,92.8,247.4,92.4,247,92.4z"/>
				</g>
				<g>
					<path class="st22" d="M260.9,76.4c-0.9,0.8,0.2,3.3,2.5,5.3c2.3,2,4.9,2.7,5.6,1.8c0.7-1-0.6-3.1-2.8-5
						C264.1,76.6,261.8,75.6,260.9,76.4z"/>
				</g>
				<g>
					<path class="st22" d="M251,89.5c-0.6,0.1-1,0.7-1.1,1.9c-0.1,1.1,0.2,2.6,1,4.1c0.8,1.4,2,2.5,3,2.9c1,0.5,1.8,0.4,2.2,0
						c0.4-0.5,0.2-1.2-0.1-2c-0.3-0.9-0.9-1.8-1.5-2.9c-0.6-1.1-1.2-2-1.8-2.7C252.2,89.9,251.6,89.4,251,89.5z"/>
				</g>
				<g>
					<path class="st22" d="M263.3,109.2c0,0.5,0.4,1,1.2,1.4c0.8,0.4,2,0.6,3.2,0.4c1.3-0.1,2.4-0.5,3.1-1c0.7-0.5,1.1-1.1,0.9-1.6
						c-0.1-0.5-0.7-0.8-1.5-0.9c-0.8-0.2-1.8-0.2-2.9-0.1c-1.1,0.1-2.1,0.3-2.8,0.6C263.9,108.3,263.4,108.7,263.3,109.2z"/>
				</g>
			</g>
			<g>
				<path class="st23" d="M254.2,103.9c-0.2,1.2,0.2,2.6,1.4,3.8c1.2,1.3,3.3,2.4,6.1,2.9c1.4,0.3,2.9,0.4,4.6,0.3
					c1.6-0.1,3.4-0.3,5.2-0.9c3.6-1,7.4-3.2,10.5-6.4c3.2-3.3,5.2-7.1,6.2-10.7c0.5-1.8,0.7-3.6,0.8-5.3c0-1.7-0.1-3.2-0.4-4.6
					c-0.6-2.7-1.8-4.8-3-6c-1.3-1.2-2.6-1.6-3.9-1.3c-1.3,0.3-2.3,1.1-3.3,2.3c-1,1.1-1.9,2.5-2.8,4c-1.9,2.9-4.1,6.2-6.7,8.7
					c-2.6,2.7-5.8,5-8.6,6.9c-1.4,1-2.8,1.9-3.9,2.9C255.3,101.6,254.5,102.6,254.2,103.9z"/>
			</g>
		</g>
	</g>
</g>
</svg>
