<svg height="512" viewBox="0 0 60 60" width="512" xmlns="http://www.w3.org/2000/svg"><g id="Page-1" fill="none" fill-rule="evenodd"><g id="059---Health-Protection" fill="rgb(0,0,0)" fill-rule="nonzero"><path id="Shape" d="m40.71 45.291c-.2471062-.2740467-.6250496-.3897408-.9832173-.3009775-.3581678.0887633-.6383468.3675572-.7288839.7252807-.0905372.3577235.0232825.7362355.2961012.9846968l3 3c.1857131.1904361.4400057.2984925.706.3h.07c.289901-.0209086.5563606-.1669139.73-.4l9-12c.3313708-.4418278.2418278-1.0686292-.2-1.4s-1.0686292-.2418278-1.4.2l-8.3 11.077z"/><path id="Shape" d="m19.171 20.893 1.729-3.456 4.19 10.478c.299466.7624169 1.0368899 1.2622441 1.856 1.258h.038c.8329828-.0106737 1.5704851-.5408283 1.846-1.327l3.223-9.024 2.269 5.678c.2819984.7060271.9399107 1.1911166 1.6977481 1.2517776.7578375.0606609 1.4845362-.3135978 1.8752519-.9657776l1.671-2.786h7.434c.5522847 0 1-.4477153 1-1s-.4477153-1-1-1h-7.434c-.7017545.0019252-1.3515912.3700649-1.714.971l-1.672 2.784-2.27-5.675c-.3139851-.7676237-1.0646904-1.2658478-1.894-1.257-.8328865.0109661-1.5702386.5410128-1.846 1.327l-3.223 9.023-4.191-10.479c-.2920996-.731989-.9868435-1.2241879-1.7742779-1.2570066-.7874344-.0328188-1.5207255.3998623-1.8727221 1.1050066l-1.727 3.458h-10.382c-.55228475 0-1 .4477153-1 1s.44771525 1 1 1h10.382c.7587183.0026202 1.4527697-.426846 1.789-1.107z"/><path id="Shape" d="m19.577 43.931c1.916 1.735 3.943 3.57 6.056 5.526.3697637.3486781.8587662.5429198 1.367.543.5041925.0007986.9895008-.1917499 1.356-.538 1.475-1.367 2.885-2.652 4.26-3.9 1.7763932 6.4338453 6.4111618 11.6943262 12.57 14.267.5171158.2240108 1.1038842.2240108 1.621 0 8.015-3.481 13.193-10.955 13.193-19.038v-7.824c.0015803-1.0633656-.8292136-1.9420477-1.891-2-3.0150422-.2077594-5.9692362-.9492706-8.725-2.19 3.13-4.277 4.616-8.318 4.616-12.627 0-9.207-6.019-16.15-14-16.15-7.15 0-11.3 5.006-13 7.675-1.7-2.669-5.85-7.675-13-7.675-7.981 0-14 6.943-14 16.15 0 10.05 7.788 17.106 19.577 27.781zm38.423-3.14c0 7.286-4.7 14.04-11.987 17.209h-.026c-7.282-3.169-11.987-9.923-11.987-17.209l-.006-7.822c2.644-.138 8.559-1.147 11.982-3.98 3.471 2.833 9.386 3.842 12.024 3.978zm-44-38.791c8.241 0 11.938 7.8 12.092 8.128.1634344.3541981.517914.5810298.908.5810298s.7445656-.2268317.908-.5810298c.154-.328 3.851-8.128 12.092-8.128 6.841 0 12 6.083 12 14.15 0 3.969-1.36 7.584-4.341 11.6-.142-.1-.287-.2-.421-.314-.7222639-.5843842-1.7547361-.5843842-2.477 0-3.185 2.6-8.927 3.43-10.87 3.531-1.0617864.0579523-1.8925803.9366344-1.891 2v7.824c.0042717.8283012.0630655 1.6554228.176 2.476-1.654 1.495-3.376 3.061-5.176 4.733-2.128-1.969-4.16-3.808-6.081-5.548-11.393-10.32-18.919-17.136-18.919-26.302 0-8.067 5.159-14.15 12-14.15z"/><path id="Shape" d="m14 6c.5522847 0 1-.44771525 1-1s-.4477153-1-1-1c-5.743 0-9.072 4.946-9.824 9.849-.083089.5455821.29150589 1.0553355.837 1.139.05027478.0079698.10109744.0119821.152.012.49339494-.0007568.91249786-.3612618.987-.849.577-3.759 2.978-8.151 7.848-8.151z"/></g></g></svg>