<svg height="512" viewBox="0 0 54 60" width="512" xmlns="http://www.w3.org/2000/svg"><g id="Page-1" fill="none" fill-rule="evenodd"><g id="065---Increased-Deaths" fill="rgb(0,0,0)" fill-rule="nonzero"><path id="Shape" d="m46 54h-3v-18c0-8.836556-7.163444-16-16-16s-16 7.163444-16 16v18h-3c-1.65685425 0-3 1.3431458-3 3v1c0 1.1045695.8954305 2 2 2h40c1.1045695 0 2-.8954305 2-2v-1c0-1.6568542-1.3431458-3-3-3zm-33-18c0-7.7319865 6.2680135-14 14-14s14 6.2680135 14 14v18h-28zm34 22h-40v-1c0-.5522847.44771525-1 1-1h38c.5522847 0 1 .4477153 1 1z"/><path id="Shape" d="m35 31h-2c-1.1045695 0-2 .8954305-2 2v10c0 .5522847.4477153 1 1 1s1-.4477153 1-1v-4h2c2.209139 0 4-1.790861 4-4s-1.790861-4-4-4zm0 6h-2v-4h2c1.1045695 0 2 .8954305 2 2s-.8954305 2-2 2z"/><path id="Shape" d="m27 44c.5522847 0 1-.4477153 1-1v-11c0-.5522847-.4477153-1-1-1s-1 .4477153-1 1v11c0 .5522847.4477153 1 1 1z"/><path id="Shape" d="m18 43v-4h2c.5522847 0 1 .4477153 1 1v3c0 .5522847.4477153 1 1 1s1-.4477153 1-1v-3c-.0034183-.6516359-.2209112-1.2840869-.619-1.8 1.3918608-1.0225903 1.967049-2.8250684 1.4247795-4.4648584-.5422694-1.63979-2.0786752-2.7439757-3.8057795-2.7351416h-2c-1.1045695 0-2 .8954305-2 2v10c0 .5522847.4477153 1 1 1s1-.4477153 1-1zm0-10h2c1.1045695 0 2 .8954305 2 2s-.8954305 2-2 2h-2z"/><path id="Shape" d="m36 47h-18c-.5522847 0-1 .4477153-1 1s.4477153 1 1 1h18c.5522847 0 1-.4477153 1-1s-.4477153-1-1-1z"/><path id="Shape" d="m37.888 9.635c.292987-.82680607.0185909-1.74819498-.679-2.28l-9-6.943c-.7136002-.5490851-1.7073998-.5490851-2.421 0l-9 6.944c-.6976992.53128214-.9721653 1.45250198-.679 2.279.2665326.8177323 1.0309388 1.3695115 1.891 1.365h3v7c0 .5522847.4477153 1 1 1s1-.4477153 1-1v-7.5c0-.82842712-.6715729-1.5-1.5-1.5l-3.488-.06 8.977-6.94 9.011 7h-3.5c-.8284271 0-1.5.67157288-1.5 1.5v7.5c0 .5522847.4477153 1 1 1s1-.4477153 1-1v-7h3c.8589573.0032048 1.6218055-.5483248 1.888-1.365z"/><path id="Shape" d="m6 40v-23.5c0-.8284271-.67157288-1.5-1.5-1.5h-2.394c-.1 0-.106-.053-.087-.07l5.894-4.9c.05069359-.04117143.12330641-.04117143.174 0l5.913 4.911c0 .006 0 .059-.106.059h-2.394c-.8284271 0-1.5.6715729-1.5 1.5v8.5c0 .5522847.4477153 1 1 1s1-.4477153 1-1v-8h1.894c.8860142.0130206 1.6829062-.5369753 1.985-1.37.2917077-.8013762.0431684-1.6995707-.619-2.237l-5.893-4.9c-.79182867-.66002602-1.94217133-.66002602-2.734 0l-5.893 4.9c-.66260336.5375834-.91118572 1.4363351-.619 2.238.30243031.8326301 1.09924413 1.3821707 1.985 1.369h1.894v23c0 .5522847.44771525 1 1 1s1-.4477153 1-1z"/><path id="Shape" d="m47.366 8.491c-.7910395-.66012259-1.9409605-.66012259-2.732 0l-5.894 4.9c-.6626034.5375834-.9111857 1.4363351-.619 2.238.3017571.8334193 1.0987273 1.3838707 1.985 1.371h1.894v8c0 .5522847.4477153 1 1 1s1-.4477153 1-1v-8.5c0-.8284271-.6715729-1.5-1.5-1.5h-2.394c-.1 0-.106-.053-.087-.07l5.894-4.9c.0502646-.0423628.1237354-.0423628.174 0l5.913 4.911c0 .006 0 .059-.106.059h-2.394c-.8284271 0-1.5.6715729-1.5 1.5v23.5c0 .5522847.4477153 1 1 1s1-.4477153 1-1v-23h1.894c.8858483.0134756 1.6828219-.5361752 1.985-1.369.2924117-.8014545.0442428-1.7001632-.618-2.238z"/></g></g></svg>