<svg xmlns="http://www.w3.org/2000/svg" width="32.482" height="31.322" viewBox="0 0 32.482 31.322">
  <g id="Group_258" data-name="Group 258" transform="translate(-103.518 -112.661)">
    <path id="Path_4021" data-name="Path 4021" d="M15.544,0A15.662,15.662,0,1,1,0,15.661,15.6,15.6,0,0,1,15.544,0Z" transform="translate(104.912 112.661)" fill="#eaeaea"/>
    <path id="Path_3953" data-name="Path 3953" d="M99.969,174.3l5.295-1.35a4.113,4.113,0,0,0,2.039-1.233l1.4-1.55a5.139,5.139,0,0,1,2.549-1.54l5.068-1.292a.511.511,0,0,1,.639.474c.021.661-.3,1.7-2.283,2.219l-.007,0a.254.254,0,0,0,.148.486l6.349-1.619a1.222,1.222,0,0,1,.591-.008,1.036,1.036,0,0,1,.779.638,1.1,1.1,0,0,1,.062.393,1.243,1.243,0,0,1-.947,1.162l-5.3,1.35a.339.339,0,0,0-.245.412h0a.339.339,0,0,0,.412.245l7.185-1.832a1.076,1.076,0,0,1,.9.157.853.853,0,0,1,.248,1.1,1.1,1.1,0,0,1-.761.676l-7.412,1.89a.339.339,0,0,0-.245.412h0a.339.339,0,0,0,.412.245l5.99-1.527a.769.769,0,0,1,.908.739c0,.008,0,.016,0,.025a.937.937,0,0,1-.669.853l-5.827,1.486a.338.338,0,0,0-.245.412l.017.066a.339.339,0,0,0,.412.245l3.119-.8a.915.915,0,0,1,1.112.661h0a.914.914,0,0,1-.66,1.112l-7.23,1.843a4.111,4.111,0,0,1-2.146-.031l-2.389-.683a4.11,4.11,0,0,0-2.146-.031l-5.293,1.349Z" transform="translate(3.549 -43.384)" fill="#eab288"/>
    <g id="Group_255" data-name="Group 255" transform="translate(111.161 123.74)">
      <circle id="Ellipse_41" data-name="Ellipse 41" cx="3.528" cy="3.528" r="3.528" transform="translate(1.942 2.7) rotate(-22.5)" fill="#fff"/>
      <circle id="Ellipse_42" data-name="Ellipse 42" cx="3.528" cy="3.528" r="3.528" transform="translate(6.496 9.137) rotate(-76.717)" fill="#fff"/>
      <circle id="Ellipse_43" data-name="Ellipse 43" cx="1.633" cy="1.633" r="1.633" transform="translate(7.92 0.611)" fill="#fff"/>
      <circle id="Ellipse_44" data-name="Ellipse 44" cx="3.528" cy="3.528" r="3.528" transform="translate(8.297 12.665) rotate(-76.718)" fill="#fff"/>
      <circle id="Ellipse_45" data-name="Ellipse 45" cx="3.528" cy="3.528" r="3.528" transform="translate(2.223 12.057) rotate(-45)" fill="#fff"/>
      <circle id="Ellipse_46" data-name="Ellipse 46" cx="3.012" cy="3.012" r="3.012" transform="translate(0 16.13) rotate(-76.717)" fill="#fff"/>
      <circle id="Ellipse_47" data-name="Ellipse 47" cx="3.528" cy="3.528" r="3.528" transform="translate(2.968 11.264) rotate(-76.718)" fill="#fff"/>
    </g>
    <path id="Path_3954" data-name="Path 3954" d="M101.694,186.528h5.464a4.113,4.113,0,0,0,2.281-.69l1.736-1.157a5.139,5.139,0,0,1,2.85-.863h5.23a.511.511,0,0,1,.5.617c-.143.646-.707,1.57-2.76,1.586h-.008a.254.254,0,0,0,.023.507h6.552a1.22,1.22,0,0,1,.574.139,1.036,1.036,0,0,1,.6.81,1.1,1.1,0,0,1-.038.4,1.243,1.243,0,0,1-1.2.892h-5.467a.339.339,0,0,0-.339.339h0a.339.339,0,0,0,.339.339h7.415a1.077,1.077,0,0,1,.829.373.853.853,0,0,1-.031,1.125,1.1,1.1,0,0,1-.9.467h-7.649a.339.339,0,0,0-.339.339h0a.339.339,0,0,0,.339.339h6.182a.77.77,0,0,1,.7.941l-.006.024a.938.938,0,0,1-.859.662h-6.014a.339.339,0,0,0-.339.339v.068a.339.339,0,0,0,.339.339h3.219a.915.915,0,0,1,.915.915h0a.915.915,0,0,1-.915.915h-7.461a4.111,4.111,0,0,1-2.072-.56l-2.146-1.252a4.112,4.112,0,0,0-2.072-.56h-5.462Z" transform="translate(2.31 -57.406)" fill="#fac89c"/>
    <path id="Path_3955" data-name="Path 3955" d="M178.489,228.278a1.22,1.22,0,1,1-1.22-1.22A1.22,1.22,0,0,1,178.489,228.278Z" transform="translate(-54.914 -88.448)" fill="#fff"/>
    <g id="Group_256" data-name="Group 256" transform="translate(115.029 116.831)">
      <path id="Path_3956" data-name="Path 3956" d="M174.579,142.143H162.485a4.624,4.624,0,0,0-4.624,4.624v.794h3.752a1.829,1.829,0,0,1,1.829-1.829h11.137Z" transform="translate(-157.861 -137.995)" fill="#073b4c"/>
      <path id="Path_3957" data-name="Path 3957" d="M193.71,130.774l-8.8-2.42a.465.465,0,0,1-.326-.57h0a.465.465,0,0,1,.535-.335l7.938,1.507a.983.983,0,0,1,.783,1.15Z" transform="translate(-177.031 -127.441)" fill="#073b4c"/>
      <path id="Rectangle_59" data-name="Rectangle 59" d="M0,0H0A1.968,1.968,0,0,1,1.968,1.968v3.52a0,0,0,0,1,0,0H0a0,0,0,0,1,0,0V0A0,0,0,0,1,0,0Z" transform="translate(14.804 2.016)" fill="#073b4c"/>
    </g>
    <path id="Path_3958" data-name="Path 3958" d="M159.34,165.2c0,.384-.212.559-.474.559s-.473-.175-.473-.559a2.187,2.187,0,0,1,.473-.966A2.186,2.186,0,0,1,159.34,165.2Z" transform="translate(-41.231 -39.575)" fill="#19afb0"/>
    <path id="Path_3959" data-name="Path 3959" d="M167.405,164.549c0,.384-.212.559-.474.559s-.473-.175-.473-.559a2.187,2.187,0,0,1,.473-.966A2.186,2.186,0,0,1,167.405,164.549Z" transform="translate(-47.412 -39.071)" fill="#19afb0"/>
    <path id="Path_3960" data-name="Path 3960" d="M163.219,169.954c0,.384-.212.559-.474.559s-.473-.175-.473-.559a2.187,2.187,0,0,1,.473-.966A2.186,2.186,0,0,1,163.219,169.954Z" transform="translate(-44.204 -43.218)" fill="#19afb0"/>
  </g>
</svg>
